<svg width="348" height="58" viewBox="0 0 348 58" fill="none" xmlns="http://www.w3.org/2000/svg">
<path d="M15.4675 25.8913C18.4687 25.698 21.0081 24.9252 21.0081 22.993C21.0081 20.0947 17.7761 20.0947 15.4675 19.9015C11.0812 20.0947 10.6195 21.4472 9.69605 23.9591H1.15429C1.84687 15.4575 9.23433 14.105 15.4675 14.105C22.1624 14.105 29.7807 15.6507 29.7807 22.0269V39.0301C29.7807 40.5758 30.2424 41.1555 31.6276 41.9284V43.0877H21.9315C21.4698 42.1216 21.4698 40.9623 21.239 39.803C18.4687 42.3148 14.7749 44.0538 10.6195 44.0538C4.38631 44.0538 0 41.1555 0 35.5522C0 27.2438 8.3109 26.4709 15.4675 25.8913ZM21.239 29.3692C17.5452 31.4946 9.00347 30.1421 9.00347 35.1657C9.23433 37.6776 10.6195 38.6437 13.3898 38.6437C19.8538 37.6776 21.4698 36.1318 21.239 29.3692ZM85.8793 25.3116V43.2809H76.8758V25.1184C76.8758 22.4133 74.5672 20.4812 71.7969 20.4812C67.1798 21.0608 66.4872 22.993 66.0255 26.2777V43.2809H57.022V26.2777C57.2529 22.993 56.0986 20.4812 52.174 20.4812C46.4025 20.6744 46.4025 22.993 46.4025 26.0845V43.2809H37.3991V14.8778H45.9408V18.9354C48.0185 15.8439 50.7888 14.105 55.6369 14.105C60.4849 14.105 63.0243 15.6507 64.8712 18.9354C67.1798 15.4575 71.1044 14.105 75.2598 14.105C84.0324 14.6846 86.341 19.7083 85.8793 25.3116ZM100.193 30.9149C100.193 35.359 103.194 38.064 107.811 38.064C111.043 37.8708 112.89 36.7115 113.813 34.7793H122.817C121.662 39.803 115.891 44.0538 107.58 44.0538C104.579 44.0538 91.1891 43.2809 91.1891 29.176C91.1891 18.1625 99.0382 14.1049 107.118 14.1049C115.66 14.1049 123.278 17.5829 123.047 30.9149H100.193ZM100.423 26.0845H114.275C114.275 22.7998 111.274 20.0947 107.349 20.0947C102.501 20.0947 100.885 22.993 100.654 26.0845H100.423ZM148.673 14.105V21.6405C143.825 21.4473 137.822 21.0608 137.822 29.5624V43.0877H129.05V14.6846H137.361V19.7083C140.593 14.8778 143.825 13.9117 148.442 14.105H148.673ZM153.983 14.6846H162.986V43.0877H153.983V14.6846ZM191.843 24.9252C191.151 21.6405 188.842 20.2879 186.072 20.2879C179.839 20.2879 179.146 25.3116 179.146 29.3692C179.146 34.7793 181.224 37.8708 185.841 37.8708C189.996 37.6776 190.92 36.5183 191.843 32.8471H200.847C199.692 39.6098 194.383 44.0538 185.61 44.0538C174.76 43.8606 169.912 38.4505 169.912 29.3692C169.912 19.1286 176.145 14.105 185.841 13.9117C196.46 13.9117 200.385 18.3558 201.078 24.732L191.843 24.9252ZM220.239 25.8913C223.009 25.698 225.549 24.9252 225.549 22.993C225.549 20.0947 222.317 20.0947 220.008 19.9015C215.622 20.0947 215.16 21.4472 214.467 23.9591H205.695C206.387 17.0032 211.466 14.105 220.47 14.105C227.165 14.105 234.552 16.0371 234.552 22.2201V39.0301C234.552 40.5759 235.014 41.1555 236.399 41.9284V43.0877H226.703C226.241 41.9284 226.241 40.7691 226.01 39.803C223.009 42.3148 219.777 44.0538 215.391 44.0538C208.927 43.8606 204.771 41.1555 204.771 35.5522C205.002 29.176 209.619 26.6641 220.239 25.8913ZM225.549 29.3692C223.702 30.3353 221.393 30.7217 219.546 30.9149C215.853 31.1082 213.544 32.0743 213.544 34.9725C213.775 37.6776 215.391 38.6437 217.93 38.6437C224.394 37.6776 226.241 35.5522 225.549 29.3692ZM272.875 24.1523V43.2809H263.871V25.8913C264.102 22.6066 262.717 20.2879 258.33 20.2879C252.79 20.2879 251.405 24.1523 251.405 27.8234V43.2809H242.401V14.8778H251.174V18.9354C253.252 15.8439 256.484 14.105 261.332 14.105C267.796 14.2982 272.875 16.2303 272.875 24.1523ZM294.114 19.9015C290.42 20.0947 288.804 21.0608 288.342 23.9591H279.8C280.493 17.0032 285.572 14.105 294.344 14.105C299.654 14.105 308.658 14.8778 308.658 22.993V39.6098C308.888 39.9962 308.658 41.1555 310.274 42.1216V43.2809H300.808C300.116 42.1216 300.116 40.9623 299.885 39.803C297.115 42.508 293.883 44.0538 289.496 44.247C283.494 44.247 278.877 41.1555 278.877 35.7454C279.108 28.9828 283.725 27.437 291.343 26.2777C295.037 26.0845 299.885 25.6981 299.885 23.1862C299.885 20.0947 296.884 20.0947 294.114 19.9015ZM293.652 30.9149C291.112 31.1082 287.649 31.881 287.649 34.9725C287.649 38.064 290.189 38.4505 292.036 38.6437C298.038 38.2572 299.885 35.9386 299.885 29.3692C297.807 30.3353 295.499 30.7217 293.652 30.9149ZM323.202 34.1997C323.663 38.2572 327.357 38.4505 330.358 38.4505C333.359 38.4505 335.899 37.6776 335.899 35.7454C336.13 33.0404 330.589 33.0404 325.51 31.6878C320.662 30.7217 314.891 29.176 315.122 23.5726C315.583 16.2303 322.74 14.105 329.204 14.105C338.9 14.105 343.517 17.3896 343.979 23.3794H335.206C334.745 20.6744 332.667 19.7083 329.204 19.7083C325.51 19.7083 323.663 20.6744 323.663 22.0269C323.663 24.3455 326.434 24.3455 334.283 26.0845C340.747 27.437 344.672 29.9489 344.902 34.5861C344.441 41.9284 338.207 44.247 329.666 44.247C319.97 44.247 314.429 40.7691 314.198 34.1997H323.202ZM0.230857 0V6.95587H347.673V0H0.230857ZM0.230857 50.8165V57.7723H347.673V50.8165H0.230857Z" fill="#E60014"/>
</svg>
