<svg width="27" height="27" viewBox="0 0 27 27" fill="none" xmlns="http://www.w3.org/2000/svg">
<g clip-path="url(#clip0_19_55)">
<path d="M26.9869 13.7527C26.9869 12.6465 26.8951 11.8393 26.6963 11.0022H13.7689V15.9949H21.357C21.2041 17.2357 20.3779 19.1043 18.5421 20.3599L18.5163 20.527L22.6037 23.621L22.8869 23.6486C25.4876 21.3017 26.9869 17.8486 26.9869 13.7527Z" fill="#4285F4"/>
<path d="M13.769 26.9073C17.4865 26.9073 20.6074 25.7114 22.8869 23.6485L18.5421 20.3598C17.3794 21.1521 15.8189 21.7052 13.769 21.7052C10.1279 21.7052 7.0376 19.3583 5.93599 16.1145L5.77452 16.1279L1.52439 19.3418L1.46881 19.4928C3.73299 23.8876 8.38378 26.9073 13.769 26.9073Z" fill="#34A853"/>
<path d="M5.93643 16.1144C5.64576 15.2773 5.47754 14.3803 5.47754 13.4536C5.47754 12.5267 5.64576 11.6298 5.92113 10.7927L5.91343 10.6144L1.61004 7.34888L1.46924 7.41432C0.536069 9.23805 0.000610352 11.286 0.000610352 13.4536C0.000610352 15.6211 0.536069 17.669 1.46924 19.4927L5.93643 16.1144Z" fill="#FBBC05"/>
<path d="M13.769 5.20203C16.3544 5.20203 18.0984 6.29327 19.0928 7.20519L22.9787 3.49794C20.5922 1.33042 17.4865 0 13.769 0C8.38379 0 3.73299 3.01957 1.46881 7.41439L5.9207 10.7928C7.0376 7.54897 10.1279 5.20203 13.769 5.20203Z" fill="#EB4335"/>
</g>
<defs>
<clipPath id="clip0_19_55">
<rect width="27" height="27" fill="white"/>
</clipPath>
</defs>
</svg>
