<svg width="851" height="347" viewBox="0 0 851 347" fill="none" xmlns="http://www.w3.org/2000/svg">
<path d="M0.777344 199.165H65.4286L101.346 61.2724H36.6947L0.777344 199.165ZM50.1637 48.7998H126.488L139.059 0.294922H62.7348L50.1637 48.7998ZM90.5707 237.968H155.222L194.731 88.9894H243.219L250.403 61.2724H202.812L204.608 55.0361C207.302 43.2563 212.69 30.0907 236.934 30.0907C251.301 30.0907 264.77 30.7837 278.239 35.6341L285.422 6.53126C270.157 2.3737 253.995 0.294922 238.73 0.294922C186.65 0.294922 150.732 23.8544 137.263 61.2724H114.815L107.631 88.9894H130.08L90.5707 237.968Z" fill="#EA1D2C"/>
<path d="M295.3 201.936C371.624 201.936 424.602 148.581 424.602 104.927C424.602 72.3592 385.991 58.5007 348.278 58.5007C264.77 58.5007 218.976 116.014 218.976 155.51C218.976 188.078 258.485 201.936 295.3 201.936ZM500.029 201.936C576.353 201.936 629.331 148.581 629.331 104.927C629.331 72.3592 589.822 58.5007 552.109 58.5007C468.601 58.5007 422.807 116.014 422.807 155.51C422.807 188.078 463.214 201.936 500.029 201.936ZM734.39 199.165H798.143L850.223 3.06665H785.572L770.307 61.2724L743.369 59.1936C680.514 59.1936 623.046 121.557 623.046 165.904C623.046 183.92 638.311 201.936 664.351 201.936C701.166 201.936 727.206 188.078 737.981 174.219H741.573L734.39 199.165ZM535.048 302.411C484.865 334.494 420.413 350.161 355.462 346.065C270.158 341.907 209.098 291.324 198.323 237.969H201.915C221.669 271.229 269.26 302.411 327.626 307.261C386.889 312.804 457.826 292.017 496.437 263.607L453.336 237.969H583.537L554.803 344.679L535.946 303.104L535.048 302.411Z" fill="#EA1D2C"/>
</svg>
