<svg width="300" height="62" viewBox="0 0 300 62" fill="none" xmlns="http://www.w3.org/2000/svg">
<path d="M296.891 0.997557H290.102C288.163 0.997557 286.995 2.0921 286.995 3.90116V22.6806C286.995 29.5744 283.019 33.4755 277.488 33.4755C271.668 33.4755 268.37 29.9386 268.37 23.1358V3.89918C268.37 2.08616 267.198 0.995577 265.263 0.995577H258.474C256.535 0.995577 255.367 2.09012 255.367 3.89918V24.0403C255.367 36.8324 262.452 44.0884 273.124 44.0884C279.525 44.0884 284.475 42.0933 287.965 38.0101L288.551 40.5515C288.941 42.1943 290.104 43.0909 291.947 43.0909H296.893C298.837 43.0909 300 41.9944 300 40.1873V3.90116C299.996 2.08814 298.832 0.997557 296.891 0.997557ZM249.548 32.0247H237.325C233.057 32.0247 230.824 29.9386 230.824 25.9464V3.89918C230.824 2.08616 229.652 0.995577 227.719 0.995577H220.734C218.795 0.995577 217.632 2.09012 217.632 3.89918V27.4862C217.632 37.1926 223.935 43.0988 234.329 43.0988H249.56C251.499 43.0988 252.667 42.0043 252.667 40.1952V34.9244C252.655 33.1114 251.487 32.0247 249.548 32.0247ZM51.8302 3.81011C51.6342 1.91792 50.5667 0.997557 48.6234 0.997557H43.4816C41.8345 0.997557 40.671 1.63093 39.7974 2.99465L27.2808 22.7716L15.6399 2.99465C14.8663 1.62301 13.5924 0.995577 11.9535 0.995577H6.4281C4.48482 0.995577 3.41727 1.91792 3.22128 3.81011L0.0228 40.0982C-0.173195 42.0973 0.902694 43.0929 2.93145 43.0929H9.14284C11.0819 43.0929 12.2475 42.1864 12.3434 40.2803L13.7029 19.9571L21.1715 32.5572C21.9493 33.9268 23.2232 34.5562 24.8579 34.5562H29.1281C30.7774 34.5562 31.9409 34.006 32.8124 32.5572L41.2569 19.0387L42.2244 40.2684C42.3224 42.1864 43.3962 43.081 45.3311 43.081H52.0241C54.0737 43.081 55.1288 42.0854 54.9328 40.0883L51.8302 3.81011ZM208.606 0.997557H203.272C201.427 0.997557 200.165 1.90407 199.878 3.63L199.586 5.71616C196.579 2.72349 192.209 0 184.934 0C172.709 0 163.687 8.98197 163.687 21.9542C163.687 34.6552 172.126 44.0904 184.156 44.0904C191.725 44.0904 196.673 41.0958 199.682 38.0121L200.167 40.5534C200.459 42.1963 201.633 43.0929 203.466 43.0929H208.608C210.549 43.0929 211.712 41.9963 211.712 40.1893V3.90116C211.71 2.08814 210.545 0.997557 208.606 0.997557ZM187.766 33.4755C180.874 33.4755 176.51 29.0301 176.51 22.1343C176.51 15.1514 181.068 10.6149 187.766 10.6149C194.652 10.6149 199.016 15.0603 199.016 21.9561C199.002 28.939 194.444 33.4755 187.766 33.4755ZM155.927 0.997557H150.593C148.748 0.997557 147.486 1.90407 147.194 3.63L146.903 5.71616C143.896 2.72349 139.532 0 132.255 0C120.032 0 111.019 8.43767 111.019 21.4099C111.019 33.7487 119.361 42.4575 131.39 42.4575C138.861 42.4575 143.325 39.5539 146.331 36.4702V38.5564C146.331 45.8124 141.965 50.4419 132.751 50.4419C128.971 50.4419 125.235 49.6957 121.786 48.2509C119.945 47.4295 118.487 47.7956 117.616 49.5176L115.481 53.5118C114.601 55.1546 114.895 56.5064 116.548 57.4129C121.69 60.1325 127.995 61.2231 134.107 61.2231C149.338 61.2231 159.04 52.2411 159.04 39.7202V3.90116C159.031 2.08814 157.868 0.997557 155.927 0.997557ZM135.07 32.1138C128.375 32.1138 123.817 27.9415 123.817 21.4989C123.817 14.6961 128.569 10.6129 135.07 10.6129C141.763 10.6129 146.321 14.3339 146.321 21.3208C146.321 27.5773 141.571 32.1138 135.07 32.1138ZM103.248 0.997557H97.9121C96.0668 0.997557 94.8074 1.90407 94.5134 3.63L94.2215 5.71616C91.2169 2.72349 86.8529 0 79.5761 0C67.3514 0 58.3293 8.98197 58.3293 21.9542C58.3293 34.6552 66.7697 44.0904 78.8004 44.0904C86.365 44.0904 91.3129 41.0958 94.3237 38.0121L94.8116 40.5534C95.1035 42.1963 96.2753 43.0929 98.1102 43.0929H103.25C105.193 43.0929 106.357 41.9963 106.357 40.1893V3.90116C106.352 2.08814 105.189 0.997557 103.248 0.997557ZM82.3888 33.4755C75.5019 33.4755 71.1337 29.0301 71.1337 22.1343C71.1337 15.1514 75.6937 10.6149 82.3888 10.6149C89.2778 10.6149 93.6419 15.0603 93.6419 21.9561C93.6419 28.939 89.0839 33.4755 82.3888 33.4755Z" fill="#0E87FE"/>
</svg>
