<svg width="326" height="100" viewBox="0 0 326 100" fill="none" xmlns="http://www.w3.org/2000/svg">
<path d="M326 0.000958332L0 25.1717V99.2307H326V0.000958332Z" fill="white"/>
<path d="M4.81348 33.5867H320.93V94.6868H4.81348V33.5867Z" fill="#FDDD04"/>
<path d="M4.81201 28.083H320.929V6.32278L4.81201 28.083Z" fill="#1D3C85"/>
<mask id="mask0_558_146" style="mask-type:luminance" maskUnits="userSpaceOnUse" x="0" y="-1" width="326" height="101">
<path d="M0 99.2295H326V-0.000139965H0V99.2295Z" fill="white"/>
</mask>
<g mask="url(#mask0_558_146)">
<path d="M14.2148 47.5538H21.8472C29.6721 47.5538 32.8855 48.9795 32.8855 57.7624C32.8855 62.6764 31.7624 67.8014 25.3723 67.8014H21.343V81.1133H14.2148V47.5538ZM21.343 61.833H23.1261C25.409 61.833 25.7573 60.6182 25.7573 57.5928C25.7573 53.5176 24.5563 53.5176 22.1543 53.5176H21.343V61.833Z" fill="#1D3C85"/>
<path d="M36.4023 47.5538H52.075V54.0264H43.4525V60.7053H51.0024V67.1688H43.4525V74.6498H52.4188V81.1133H36.4023V47.5538Z" fill="#1D3C85"/>
<path d="M56.7061 47.5538H65.8282C71.9845 47.5538 74.5745 49.6121 74.5745 55.6583C74.5745 59.6098 74.0886 62.1722 70.4076 63.4328V63.5153C72.8509 64.0654 74.4232 66.0365 74.4232 68.8511V74.7736C74.4232 77.0014 74.3499 80.0223 75.1383 81.1133H68.3081C67.5197 80.0223 67.5197 77.0014 67.5197 74.7736V69.3966C67.5197 67.4667 66.8413 66.6233 64.8931 66.6233H63.6141V81.1133H56.7061V47.5538ZM63.6141 60.9116H65.301C67.671 60.9116 67.671 59.1468 67.671 56.9648C67.671 54.6086 67.671 53.2655 64.9664 53.2655H63.6141V60.9116Z" fill="#1D3C85"/>
<path d="M79.3262 47.5538H87.1648L92.9315 67.3384H93.0094V47.5538H99.9496V81.1133H92.1522L86.3443 60.3661H86.2663V81.1133H79.3262V47.5538Z" fill="#1D3C85"/>
<path d="M108.65 47.5538H118.066L123.855 81.1133H116.406L115.751 75.1541H110.773L110.039 81.1133H102.938L108.65 47.5538ZM111.506 69.1857H115.054L113.395 52.7613H113.321L111.506 69.1857Z" fill="#1D3C85"/>
<path d="M127.057 47.5538H138.526L140.585 64.1846H140.662L142.716 47.5538H154.19V81.1133H147.149V55.0303H147.071L142.996 81.1133H138.247L134.176 55.0303H134.098V81.1133H127.057V47.5538Z" fill="#1D3C85"/>
<path d="M157.808 47.5538H167.672C172.861 47.5538 175.373 49.6992 175.373 55.4521C175.373 58.9772 174.911 62.0897 171.463 63.3457V63.4328C174.947 64.1067 176.148 66.9166 176.148 71.1614C176.148 76.786 174.25 81.1133 167.906 81.1133H157.808V47.5538ZM164.927 75.4016H166.398C168.759 75.4016 169.029 74.1456 169.029 70.8268C169.029 68.5119 168.759 66.2886 166.554 66.2886H164.927V75.4016ZM164.927 60.8245H166.242C168.484 60.8245 168.718 59.0184 168.718 56.9189C168.718 54.5674 168.255 53.2655 166.513 53.2655H164.927V60.8245Z" fill="#1D3C85"/>
<path d="M179.995 47.5531H187.114V72.0591C187.114 73.8652 187.114 75.4604 189.168 75.4604C191.217 75.4604 191.217 73.8652 191.217 72.0591V47.5531H198.336V71.972C198.336 77.9404 194.815 81.6809 189.168 81.6809C183.516 81.6809 179.995 77.9404 179.995 71.972V47.5531Z" fill="#1D3C85"/>
<path d="M201.749 56.7011C201.749 50.1414 205.618 46.9876 210.922 46.9876C216.221 46.9876 220.09 50.1414 220.09 56.7011V59.8136H212.971V56.0272C212.971 54.895 212.971 52.9605 210.922 52.9605C208.868 52.9605 208.868 54.895 208.868 56.0272V72.6442C208.868 73.5243 208.868 75.7109 210.922 75.7109C212.971 75.7109 212.971 73.5243 212.971 72.6442V67.721H220.09V71.9658C220.09 77.9387 216.569 81.6838 210.922 81.6838C205.27 81.6838 201.749 77.9387 201.749 71.9658V56.7011Z" fill="#1D3C85"/>
<path d="M227.492 47.5538H236.912L242.702 81.1133H235.253L234.593 75.1541H229.614L228.881 81.1133H221.78L227.492 47.5538ZM230.348 69.1857H233.896L232.241 52.7613H232.163L230.348 69.1857Z" fill="#1D3C85"/>
<path d="M245.692 47.5538H253.526L259.298 67.3384H259.371V47.5538H266.311V81.1133H258.518L252.71 60.3661H252.633V81.1133H245.692V47.5538Z" fill="#1D3C85"/>
<path d="M274.146 47.5538H283.566L289.355 81.1133H281.906L281.246 75.1541H276.268L275.535 81.1133H268.434L274.146 47.5538ZM277.002 69.1857H280.554L278.895 52.7613H278.817L277.002 69.1857Z" fill="#1D3C85"/>
<path d="M298.091 69.7389V72.2234C298.091 74.0295 298.477 75.7072 300.493 75.7072C302.125 75.7072 302.978 74.575 302.978 73.1035C302.978 70.1606 300.145 68.1849 297.317 65.9525C294.443 63.39 291.573 61.5381 291.573 56.4086C291.573 49.8031 294.988 46.9839 300.686 46.9839C306.893 46.9839 309.606 50.266 309.606 55.4414V58.4668H302.937V56.6561C302.937 54.9784 302.703 52.9569 300.686 52.9569C299.178 52.9569 298.247 53.9241 298.247 55.4826C298.247 57.4996 301.268 59.8145 304.179 62.1707C306.815 64.6919 310.111 66.333 310.111 73.1035C310.111 76.3398 307.86 81.6802 300.416 81.6802C293.361 81.6802 291.188 76.8486 291.188 73.3556V69.7389H298.091Z" fill="#1D3C85"/>
</g>
</svg>
