<svg width="1920" height="1080" viewBox="0 0 1920 1080" fill="none" xmlns="http://www.w3.org/2000/svg">
<g clip-path="url(#clip0_104_41)">
<path fill-rule="evenodd" clip-rule="evenodd" d="M542.067 805.552C472.484 770.591 378.919 737.646 364.506 661.119C349.58 581.861 445.118 526.355 475.41 451.608C499.052 393.271 476.379 315.944 521.978 272.552C567.553 229.183 646.619 262.833 703.039 235C789.142 192.523 840.946 40.1495 932.127 70.2149C1021.17 99.5765 960 254.414 1007.35 335.342C1046.81 402.767 1180.31 411.471 1177.48 489.539C1174.53 571.035 1043.76 580.059 996.102 646.234C957.072 700.428 984.022 790.615 931.212 831.5C878.48 872.325 802.41 852.144 735.869 847.707C668.541 843.218 602.362 835.847 542.067 805.552Z" stroke="url(#paint0_linear_104_41)"/>
<path opacity="0.95875" fill-rule="evenodd" clip-rule="evenodd" d="M549.754 797.031C481.434 759.663 389.075 723.473 377.343 646.49C365.191 566.759 462.608 514.62 495.49 440.977C521.154 383.5 501.193 305.429 548.28 263.655C595.34 221.903 673.183 258.292 730.54 232.445C818.073 192.999 875.163 42.5258 965.24 75.7551C1053.21 108.206 986.668 260.815 1031.17 343.346C1068.24 412.107 1201.36 425.465 1195.81 503.387C1190.02 584.73 1059.01 589.184 1009.07 653.655C968.175 706.455 991.961 797.527 937.757 836.544C883.632 875.505 808.313 852.681 741.967 845.924C674.836 839.088 608.955 829.412 549.754 797.031Z" stroke="url(#paint1_linear_104_41)"/>
<path opacity="0.9175" fill-rule="evenodd" clip-rule="evenodd" d="M557.734 788.783C490.759 749.053 399.72 709.662 390.681 632.316C381.319 552.21 480.496 503.503 515.929 431.051C543.582 374.506 526.359 295.785 574.874 255.68C623.364 215.596 699.889 254.68 758.113 230.85C846.969 194.482 909.276 46.0938 998.138 82.4465C1084.92 117.948 1013.09 268.141 1054.69 352.175C1089.34 422.188 1221.91 440.183 1213.65 517.864C1205.02 598.956 1073.93 598.835 1021.78 661.524C979.061 712.865 999.654 804.711 944.121 841.813C888.67 878.861 814.192 853.422 748.123 844.354C681.272 835.179 615.769 823.21 557.734 788.783Z" stroke="url(#paint2_linear_104_41)"/>
<path opacity="0.87625" fill-rule="evenodd" clip-rule="evenodd" d="M565.996 780.818C500.449 738.775 410.839 696.231 404.506 618.617C397.946 538.232 498.762 493.016 536.701 421.846C566.311 366.299 551.846 287.026 601.731 248.638C651.59 210.271 726.705 252.001 785.725 230.218C875.796 196.974 943.244 50.85 1030.78 90.2817C1116.27 128.79 1039.25 276.385 1077.88 361.819C1110.07 432.999 1241.93 455.61 1230.96 532.956C1219.51 613.697 1088.51 609.001 1034.2 669.832C989.716 719.65 1007.09 812.159 950.297 847.301C893.587 882.39 820.043 854.368 754.33 843C687.84 831.498 622.794 817.25 565.996 780.818Z" stroke="url(#paint3_linear_104_41)"/>
<path opacity="0.835" fill-rule="evenodd" clip-rule="evenodd" d="M574.532 773.147C510.491 728.842 422.421 683.196 418.8 605.408C415.049 524.844 517.382 483.174 557.782 413.37C589.313 358.891 577.623 279.161 628.818 242.538C679.985 205.934 753.597 250.261 813.342 230.55C904.519 200.47 977.025 56.7889 1063.13 99.2517C1147.23 140.721 1065.1 285.538 1100.73 372.268C1130.41 444.527 1261.41 471.727 1247.75 548.642C1233.48 628.935 1102.72 619.67 1046.32 678.568C1000.13 726.804 1014.26 819.863 956.278 853C898.378 886.09 825.856 855.518 760.58 841.863C694.532 828.047 630.024 811.538 574.532 773.147Z" stroke="url(#paint4_linear_104_41)"/>
<path opacity="0.79375" fill-rule="evenodd" clip-rule="evenodd" d="M583.329 765.778C520.874 719.265 434.451 670.573 433.547 592.706C432.61 512.06 536.335 473.987 579.146 405.636C612.559 352.29 603.659 272.201 656.1 237.387C708.514 202.591 780.535 249.459 840.931 231.846C933.102 204.966 1010.58 63.9031 1095.15 109.345C1177.75 153.724 1090.62 295.586 1123.2 383.507C1150.34 456.759 1280.31 488.513 1263.97 564.905C1246.91 644.65 1116.56 630.828 1058.13 687.722C1010.28 734.316 1021.16 827.812 962.057 858.906C903.037 889.954 831.627 856.87 766.867 840.945C701.341 824.833 637.448 806.082 583.329 765.778Z" stroke="url(#paint5_linear_104_41)"/>
<path opacity="0.7525" fill-rule="evenodd" clip-rule="evenodd" d="M592.379 758.72C531.585 710.056 446.914 658.378 448.728 580.527C450.606 499.897 555.597 465.467 600.767 398.652C636.022 346.505 629.922 266.154 683.546 233.191C737.142 200.246 807.483 249.599 868.457 234.104C961.51 210.457 1043.86 72.184 1126.8 120.55C1207.8 167.784 1115.77 306.519 1145.26 395.523C1169.83 469.678 1298.61 505.949 1279.61 581.724C1259.78 660.826 1129.99 642.462 1069.62 697.282C1020.17 742.178 1027.78 835.997 967.626 865.009C907.558 893.979 837.346 858.422 773.181 840.248C708.258 821.858 645.058 800.889 592.379 758.72Z" stroke="url(#paint6_linear_104_41)"/>
<path opacity="0.71125" fill-rule="evenodd" clip-rule="evenodd" d="M601.669 751.983C542.611 701.226 459.795 646.625 464.325 568.885C469.016 488.37 575.144 457.625 622.619 392.427C659.672 341.542 656.379 261.027 711.122 229.955C765.835 198.901 834.411 250.679 895.889 237.321C989.71 216.936 1076.84 81.6214 1158.04 132.853C1237.34 182.884 1140.52 318.323 1166.89 408.302C1188.86 483.269 1316.29 524.012 1294.66 599.078C1272.08 677.44 1143.01 654.558 1080.76 707.238C1029.78 750.381 1034.11 844.408 972.978 871.303C911.936 898.158 843.008 860.173 779.516 839.77C715.274 819.126 652.844 795.964 601.669 751.983Z" stroke="url(#paint7_linear_104_41)"/>
<path opacity="0.67" fill-rule="evenodd" clip-rule="evenodd" d="M611.189 745.574C553.938 692.787 473.078 635.329 480.318 557.794C487.816 477.492 594.953 450.469 644.674 386.968C683.48 337.407 683 256.826 738.794 227.684C794.557 198.558 861.284 252.697 923.191 241.494C1017.67 224.396 1109.46 92.2039 1188.83 146.238C1266.33 199.007 1164.85 330.984 1188.06 421.829C1207.4 497.516 1333.33 542.682 1309.1 616.947C1283.8 694.473 1155.6 667.101 1091.55 717.576C1039.09 758.913 1040.14 853.034 978.108 877.779C916.165 902.488 848.605 862.121 785.864 839.515C722.381 816.641 660.798 791.315 611.189 745.574Z" stroke="url(#paint8_linear_104_41)"/>
<path opacity="0.62875" fill-rule="evenodd" clip-rule="evenodd" d="M620.927 739.501C565.553 684.748 486.748 624.503 496.689 547.268C506.985 467.276 615 444.009 666.907 382.282C707.419 334.106 709.751 253.557 766.528 226.38C823.274 199.217 888.071 255.653 950.331 246.617C1045.35 232.826 1141.7 103.918 1219.13 160.689C1294.74 216.131 1188.72 344.486 1208.74 436.085C1225.43 512.402 1349.71 561.935 1322.9 635.309C1294.91 711.905 1167.75 680.075 1101.97 728.284C1048.11 767.766 1045.87 861.866 983.008 884.431C920.241 906.963 854.13 864.263 792.217 839.481C729.571 814.405 668.91 786.945 620.927 739.501Z" stroke="url(#paint9_linear_104_41)"/>
<path opacity="0.5875" fill-rule="evenodd" clip-rule="evenodd" d="M630.871 733.772C577.442 677.12 500.787 614.161 513.417 537.32C526.499 457.736 635.259 438.253 689.289 378.375C731.458 331.642 736.6 251.224 794.291 226.045C851.95 200.879 914.738 259.542 977.275 252.683C1072.71 242.217 1173.51 116.751 1248.91 176.189C1322.54 234.236 1212.1 358.813 1228.92 451.055C1242.93 527.908 1365.41 581.748 1336.05 654.142C1305.41 729.714 1179.43 693.466 1112.01 739.35C1056.8 776.928 1051.28 870.892 987.673 891.25C924.158 911.578 859.578 866.596 798.567 839.668C736.835 812.422 677.168 782.861 630.871 733.772Z" stroke="url(#paint10_linear_104_41)"/>
<path opacity="0.54625" fill-rule="evenodd" clip-rule="evenodd" d="M641.009 728.393C589.589 669.911 515.178 604.315 530.483 527.962C546.334 448.883 655.708 433.207 711.795 375.251C755.569 330.018 763.514 249.829 822.048 226.678C880.551 203.541 941.253 264.358 1003.99 259.687C1099.74 252.558 1204.85 130.686 1278.13 192.719C1349.69 253.301 1234.97 373.947 1248.56 466.72C1259.88 544.015 1380.4 602.097 1348.54 673.422C1315.27 747.879 1190.64 707.256 1121.66 750.76C1065.17 786.387 1056.38 880.102 992.098 898.227C927.912 916.326 864.941 869.118 804.907 840.077C744.163 810.693 685.565 779.069 641.009 728.393Z" stroke="url(#paint11_linear_104_41)"/>
<path opacity="0.505" fill-rule="evenodd" clip-rule="evenodd" d="M651.328 723.371C601.981 663.13 529.904 594.978 547.864 519.205C566.465 440.728 676.32 428.879 734.395 372.915C779.721 329.237 790.46 249.374 849.767 228.28C909.041 207.198 967.584 270.098 1030.45 267.619C1126.38 263.835 1235.68 145.706 1306.75 210.259C1376.16 273.301 1257.3 389.87 1267.64 483.061C1276.26 560.704 1394.68 622.956 1360.34 693.126C1324.5 766.377 1201.36 721.429 1130.91 762.499C1073.21 796.133 1061.15 889.484 996.276 905.355C931.497 921.203 870.212 871.826 811.229 840.708C751.547 809.222 694.088 775.571 651.328 723.371Z" stroke="url(#paint12_linear_104_41)"/>
<path opacity="0.46375" fill-rule="evenodd" clip-rule="evenodd" d="M661.816 718.713C614.601 656.786 544.947 586.16 565.541 511.06C586.869 433.28 697.071 425.272 757.064 371.369C803.886 329.3 817.406 249.86 877.412 230.849C937.387 211.848 993.699 276.752 1056.61 276.469C1152.62 276.036 1265.98 161.793 1334.75 228.787C1401.91 294.213 1279.06 406.563 1286.14 500.058C1292.04 577.954 1408.22 644.302 1371.46 713.23C1333.08 785.186 1211.58 735.968 1139.74 774.554C1080.9 806.154 1065.59 899.027 1000.2 912.624C934.911 926.202 875.386 874.716 817.525 841.558C758.978 808.008 702.729 772.373 661.816 718.713Z" stroke="url(#paint13_linear_104_41)"/>
<path opacity="0.4225" fill-rule="evenodd" clip-rule="evenodd" d="M672.46 714.423C627.436 650.887 560.289 577.872 583.491 503.537C607.521 426.548 717.935 422.391 779.772 370.615C828.034 330.205 844.318 251.286 904.952 234.381C965.552 217.485 1019.57 284.315 1082.45 286.227C1178.41 289.145 1295.69 178.927 1362.08 248.281C1426.92 316.011 1300.22 424.005 1304.03 517.69C1307.21 595.745 1421.01 666.106 1381.86 733.71C1341 804.282 1221.29 750.854 1148.14 786.909C1088.24 816.437 1069.7 908.719 1003.87 920.026C938.147 931.316 880.456 877.784 823.787 842.628C766.447 807.055 711.475 769.478 672.46 714.423Z" stroke="url(#paint14_linear_104_41)"/>
<path opacity="0.38125" fill-rule="evenodd" clip-rule="evenodd" d="M683.248 710.507C640.468 645.438 575.91 570.125 601.692 496.644C628.395 420.542 738.886 420.24 802.493 370.654C852.136 331.953 871.165 253.65 932.351 238.871C993.504 224.101 1045.15 292.775 1107.93 296.88C1203.74 303.146 1324.79 197.089 1388.72 268.717C1451.16 338.668 1320.76 442.174 1321.3 535.936C1321.76 614.054 1433.02 688.344 1391.54 754.541C1348.24 823.643 1230.47 766.07 1156.11 799.551C1095.21 826.97 1073.46 918.548 1007.28 927.551C941.204 936.541 885.416 881.028 830.008 843.915C773.945 806.363 720.318 766.891 683.248 710.507Z" stroke="url(#paint15_linear_104_41)"/>
<path opacity="0.34" fill-rule="evenodd" clip-rule="evenodd" d="M694.166 706.971C653.683 640.448 591.793 562.928 620.124 490.392C649.466 415.267 759.9 418.822 825.199 371.486C876.162 334.541 897.912 256.95 959.577 244.315C1021.21 231.688 1070.43 302.123 1133.02 308.417C1228.55 318.022 1353.23 216.254 1414.62 290.07C1474.58 362.158 1340.65 461.05 1337.92 554.773C1335.65 632.86 1444.26 710.988 1400.49 775.696C1354.8 843.246 1239.12 781.598 1163.63 812.462C1101.82 837.74 1076.88 928.503 1010.43 935.191C944.076 941.869 890.259 884.443 836.18 845.419C781.462 805.933 729.245 764.613 694.166 706.971Z" stroke="url(#paint16_linear_104_41)"/>
<path opacity="0.29875" fill-rule="evenodd" clip-rule="evenodd" d="M705.2 703.817C667.063 635.922 607.916 556.289 638.762 484.786C670.708 410.731 780.951 418.138 847.862 373.11C900.084 337.966 924.528 261.181 986.596 250.706C1048.63 240.238 1095.36 312.347 1157.7 320.822C1252.84 333.755 1380.99 236.4 1439.77 312.314C1497.17 386.45 1359.88 480.608 1353.88 574.179C1348.88 652.139 1454.69 734.009 1408.7 797.151C1360.68 863.065 1247.22 797.417 1170.7 825.629C1108.04 848.733 1079.95 938.571 1013.31 942.936C946.76 947.294 894.981 888.025 842.297 847.137C788.989 805.766 738.247 762.649 705.2 703.817Z" stroke="url(#paint17_linear_104_41)"/>
<path opacity="0.2575" fill-rule="evenodd" clip-rule="evenodd" d="M716.338 701.051C680.594 631.866 624.262 550.217 657.584 479.834C692.095 406.94 802.013 418.189 870.454 375.523C923.871 342.224 950.98 266.338 1013.38 258.037C1075.74 249.739 1119.92 323.436 1181.93 334.081C1276.56 350.326 1408.03 257.503 1464.12 335.422C1518.91 411.517 1378.4 500.825 1369.15 594.13C1361.43 671.868 1464.32 757.381 1416.15 818.879C1365.86 883.077 1254.76 813.51 1177.3 839.034C1113.87 859.937 1082.67 948.74 1015.91 950.776C949.254 952.81 899.574 891.77 848.349 849.068C796.518 805.862 747.311 761 716.338 701.051Z" stroke="url(#paint18_linear_104_41)"/>
<path opacity="0.21625" fill-rule="evenodd" clip-rule="evenodd" d="M727.566 698.674C694.258 628.285 640.81 544.72 676.568 475.543C713.602 403.897 823.06 418.976 892.949 378.724C947.495 347.309 977.236 272.416 1039.88 266.297C1102.5 260.181 1144.08 335.375 1205.68 348.177C1299.68 367.715 1434.31 279.537 1487.66 359.366C1539.75 437.326 1396.22 521.677 1383.71 614.602C1373.28 692.023 1473.13 781.075 1422.84 840.855C1370.34 903.258 1261.73 829.856 1183.44 852.661C1119.31 871.338 1085.03 958.998 1018.24 958.703C951.553 958.409 904.034 895.672 854.33 851.209C804.039 806.22 756.428 759.668 727.566 698.674Z" stroke="url(#paint19_linear_104_41)"/>
<path opacity="0.175" fill-rule="evenodd" clip-rule="evenodd" d="M738.869 696.692C708.038 625.182 657.539 539.803 695.69 471.916C735.201 401.606 844.066 420.496 915.318 382.708C970.927 353.216 1003.26 279.406 1066.09 275.477C1128.88 271.55 1167.81 348.149 1228.92 363.094C1322.19 385.901 1459.81 302.475 1510.34 384.116C1559.68 463.847 1413.29 543.138 1397.54 635.569C1384.43 712.579 1481.1 805.062 1428.76 863.05C1374.11 923.583 1268.13 846.435 1189.09 866.494C1124.35 882.922 1087.03 969.332 1020.29 966.706C953.656 964.085 908.355 899.728 860.234 853.557C811.543 806.841 765.585 758.656 738.869 696.692Z" stroke="url(#paint20_linear_104_41)"/>
<path opacity="0.13375" fill-rule="evenodd" clip-rule="evenodd" d="M750.235 695.104C721.919 622.563 674.43 535.473 714.926 468.959C756.868 400.071 865.007 422.748 937.534 387.47C994.139 359.937 1029.03 287.301 1091.95 285.566C1154.84 283.833 1191.08 361.744 1251.63 378.812C1344.04 404.86 1484.5 326.288 1532.14 409.644C1578.67 491.048 1429.6 565.181 1410.64 657.007C1394.84 733.512 1488.23 829.312 1433.9 885.438C1377.17 944.028 1273.95 863.228 1194.25 880.516C1128.99 894.675 1088.67 979.729 1022.06 974.776C955.559 969.831 912.532 903.932 866.051 856.11C819.02 807.723 774.772 757.963 750.235 695.104Z" stroke="url(#paint21_linear_104_41)"/>
<path opacity="0.0925" fill-rule="evenodd" clip-rule="evenodd" d="M761.65 693.915C735.882 620.429 691.462 531.735 734.255 466.675C778.575 399.292 885.857 425.73 959.571 393.005C1017.1 367.463 1054.51 296.089 1117.45 296.552C1180.36 297.014 1213.86 376.143 1273.78 395.314C1365.23 424.571 1508.34 350.949 1553.04 435.916C1596.7 518.895 1445.14 587.78 1422.98 678.888C1404.53 754.796 1494.51 853.797 1438.25 907.992C1379.52 964.566 1279.18 880.213 1198.93 894.71C1133.2 906.582 1089.94 990.177 1023.55 982.903C957.261 975.64 916.56 908.28 871.776 858.865C826.463 808.865 783.978 757.592 761.65 693.915Z" stroke="url(#paint22_linear_104_41)"/>
<path opacity="0.05125" fill-rule="evenodd" clip-rule="evenodd" d="M773.099 693.125C749.911 618.784 708.614 528.594 753.651 465.067C800.296 399.272 906.59 429.438 981.401 399.305C1039.79 375.787 1079.66 305.762 1142.55 308.421C1205.41 311.079 1236.13 391.328 1295.34 412.579C1385.71 445.009 1531.3 376.426 1573.01 462.902C1613.75 547.354 1459.88 610.908 1434.55 701.187C1413.46 776.404 1499.94 878.486 1441.82 930.684C1381.15 985.174 1283.81 897.371 1203.1 909.058C1137 918.629 1090.85 1000.66 1024.76 991.077C958.758 981.504 920.433 912.765 877.401 861.817C833.86 810.266 793.191 757.542 773.099 693.125Z" stroke="url(#paint23_linear_104_41)"/>
<path opacity="0.01" fill-rule="evenodd" clip-rule="evenodd" d="M784.568 692.733C763.989 617.629 725.864 526.052 773.091 464.135C822.003 400.009 927.18 433.866 1003 406.362C1062.17 384.896 1104.46 316.305 1167.22 321.158C1229.95 326.007 1257.84 407.28 1316.28 430.584C1405.46 466.149 1553.36 402.689 1592.03 490.568C1629.8 576.389 1473.79 634.535 1445.34 723.876C1421.63 798.311 1504.49 903.348 1444.59 953.486C1382.05 1005.83 1287.84 914.678 1206.77 923.542C1140.38 930.8 1091.39 1011.17 1025.67 999.287C960.05 987.417 924.147 917.381 882.919 864.963C841.204 811.924 802.4 757.812 784.568 692.733Z" stroke="url(#paint24_linear_104_41)"/>
<g filter="url(#filter0_b_104_41)">
<rect y="0.00012207" width="1920" height="1080" fill="white" fill-opacity="0.3"/>
</g>
</g>
<defs>
<filter id="filter0_b_104_41" x="-36" y="-36" width="1992" height="1152" filterUnits="userSpaceOnUse" color-interpolation-filters="sRGB">
<feFlood flood-opacity="0" result="BackgroundImageFix"/>
<feGaussianBlur in="BackgroundImageFix" stdDeviation="18"/>
<feComposite in2="SourceAlpha" operator="in" result="effect1_backgroundBlur_104_41"/>
<feBlend mode="normal" in="SourceGraphic" in2="effect1_backgroundBlur_104_41" result="shape"/>
</filter>
<linearGradient id="paint0_linear_104_41" x1="890.336" y1="1097.73" x2="107.092" y2="383.412" gradientUnits="userSpaceOnUse">
<stop stop-color="#6F51FA"/>
<stop offset="1" stop-color="#FD51E3"/>
</linearGradient>
<linearGradient id="paint1_linear_104_41" x1="887.614" y1="1101.19" x2="129.777" y2="359.968" gradientUnits="userSpaceOnUse">
<stop stop-color="#6F51FA"/>
<stop offset="1" stop-color="#FD51E3"/>
</linearGradient>
<linearGradient id="paint2_linear_104_41" x1="884.772" y1="1104.55" x2="153.265" y2="337.329" gradientUnits="userSpaceOnUse">
<stop stop-color="#6F51FA"/>
<stop offset="1" stop-color="#FD51E3"/>
</linearGradient>
<linearGradient id="paint3_linear_104_41" x1="881.816" y1="1107.8" x2="177.529" y2="315.523" gradientUnits="userSpaceOnUse">
<stop stop-color="#6F51FA"/>
<stop offset="1" stop-color="#FD51E3"/>
</linearGradient>
<linearGradient id="paint4_linear_104_41" x1="878.747" y1="1110.96" x2="202.54" y2="294.578" gradientUnits="userSpaceOnUse">
<stop stop-color="#6F51FA"/>
<stop offset="1" stop-color="#FD51E3"/>
</linearGradient>
<linearGradient id="paint5_linear_104_41" x1="875.57" y1="1114" x2="228.266" y2="274.518" gradientUnits="userSpaceOnUse">
<stop stop-color="#6F51FA"/>
<stop offset="1" stop-color="#FD51E3"/>
</linearGradient>
<linearGradient id="paint6_linear_104_41" x1="872.289" y1="1116.93" x2="254.677" y2="255.369" gradientUnits="userSpaceOnUse">
<stop stop-color="#6F51FA"/>
<stop offset="1" stop-color="#FD51E3"/>
</linearGradient>
<linearGradient id="paint7_linear_104_41" x1="868.908" y1="1119.74" x2="281.74" y2="237.152" gradientUnits="userSpaceOnUse">
<stop stop-color="#6F51FA"/>
<stop offset="1" stop-color="#FD51E3"/>
</linearGradient>
<linearGradient id="paint8_linear_104_41" x1="865.43" y1="1122.43" x2="309.422" y2="219.891" gradientUnits="userSpaceOnUse">
<stop stop-color="#6F51FA"/>
<stop offset="1" stop-color="#FD51E3"/>
</linearGradient>
<linearGradient id="paint9_linear_104_41" x1="861.861" y1="1125" x2="337.69" y2="203.607" gradientUnits="userSpaceOnUse">
<stop stop-color="#6F51FA"/>
<stop offset="1" stop-color="#FD51E3"/>
</linearGradient>
<linearGradient id="paint10_linear_104_41" x1="858.204" y1="1127.45" x2="366.508" y2="188.319" gradientUnits="userSpaceOnUse">
<stop stop-color="#6F51FA"/>
<stop offset="1" stop-color="#FD51E3"/>
</linearGradient>
<linearGradient id="paint11_linear_104_41" x1="854.464" y1="1129.76" x2="395.843" y2="174.047" gradientUnits="userSpaceOnUse">
<stop stop-color="#6F51FA"/>
<stop offset="1" stop-color="#FD51E3"/>
</linearGradient>
<linearGradient id="paint12_linear_104_41" x1="850.646" y1="1131.95" x2="425.658" y2="160.806" gradientUnits="userSpaceOnUse">
<stop stop-color="#6F51FA"/>
<stop offset="1" stop-color="#FD51E3"/>
</linearGradient>
<linearGradient id="paint13_linear_104_41" x1="846.754" y1="1134" x2="455.917" y2="148.615" gradientUnits="userSpaceOnUse">
<stop stop-color="#6F51FA"/>
<stop offset="1" stop-color="#FD51E3"/>
</linearGradient>
<linearGradient id="paint14_linear_104_41" x1="842.792" y1="1135.91" x2="486.583" y2="137.487" gradientUnits="userSpaceOnUse">
<stop stop-color="#6F51FA"/>
<stop offset="1" stop-color="#FD51E3"/>
</linearGradient>
<linearGradient id="paint15_linear_104_41" x1="838.766" y1="1137.68" x2="517.619" y2="127.436" gradientUnits="userSpaceOnUse">
<stop stop-color="#6F51FA"/>
<stop offset="1" stop-color="#FD51E3"/>
</linearGradient>
<linearGradient id="paint16_linear_104_41" x1="834.681" y1="1139.31" x2="548.986" y2="118.474" gradientUnits="userSpaceOnUse">
<stop stop-color="#6F51FA"/>
<stop offset="1" stop-color="#FD51E3"/>
</linearGradient>
<linearGradient id="paint17_linear_104_41" x1="830.542" y1="1140.8" x2="580.647" y2="110.612" gradientUnits="userSpaceOnUse">
<stop stop-color="#6F51FA"/>
<stop offset="1" stop-color="#FD51E3"/>
</linearGradient>
<linearGradient id="paint18_linear_104_41" x1="826.353" y1="1142.14" x2="612.563" y2="103.86" gradientUnits="userSpaceOnUse">
<stop stop-color="#6F51FA"/>
<stop offset="1" stop-color="#FD51E3"/>
</linearGradient>
<linearGradient id="paint19_linear_104_41" x1="822.12" y1="1143.33" x2="644.696" y2="98.2259" gradientUnits="userSpaceOnUse">
<stop stop-color="#6F51FA"/>
<stop offset="1" stop-color="#FD51E3"/>
</linearGradient>
<linearGradient id="paint20_linear_104_41" x1="817.847" y1="1144.38" x2="677.005" y2="93.7167" gradientUnits="userSpaceOnUse">
<stop stop-color="#6F51FA"/>
<stop offset="1" stop-color="#FD51E3"/>
</linearGradient>
<linearGradient id="paint21_linear_104_41" x1="813.541" y1="1145.28" x2="709.453" y2="90.3379" gradientUnits="userSpaceOnUse">
<stop stop-color="#6F51FA"/>
<stop offset="1" stop-color="#FD51E3"/>
</linearGradient>
<linearGradient id="paint22_linear_104_41" x1="809.206" y1="1146.02" x2="741.998" y2="88.0936" gradientUnits="userSpaceOnUse">
<stop stop-color="#6F51FA"/>
<stop offset="1" stop-color="#FD51E3"/>
</linearGradient>
<linearGradient id="paint23_linear_104_41" x1="804.848" y1="1146.61" x2="774.602" y2="86.9862" gradientUnits="userSpaceOnUse">
<stop stop-color="#6F51FA"/>
<stop offset="1" stop-color="#FD51E3"/>
</linearGradient>
<linearGradient id="paint24_linear_104_41" x1="800.471" y1="1147.06" x2="807.224" y2="87.0166" gradientUnits="userSpaceOnUse">
<stop stop-color="#6F51FA"/>
<stop offset="1" stop-color="#FD51E3"/>
</linearGradient>
<clipPath id="clip0_104_41">
<rect width="1920" height="1080" fill="white"/>
</clipPath>
</defs>
</svg>
