<svg width="891" height="286" viewBox="0 0 891 286" fill="none" xmlns="http://www.w3.org/2000/svg">
<g clip-path="url(#clip0_563_260)">
<path d="M257.721 237.341V108.501C257.712 108.347 257.736 108.193 257.791 108.049C257.845 107.904 257.93 107.773 258.039 107.664C258.148 107.555 258.279 107.47 258.423 107.415C258.568 107.36 258.722 107.337 258.876 107.346H283.65C283.951 107.364 284.235 107.492 284.449 107.704C284.663 107.917 284.792 108.2 284.813 108.501V155.08H285.275C291.759 146.742 301.708 143.027 312.598 143.027C332.042 143.027 338.296 155.774 338.296 172.69V237.581C338.277 237.881 338.149 238.164 337.936 238.377C337.724 238.59 337.441 238.718 337.141 238.736H312.367C312.212 238.747 312.057 238.724 311.912 238.67C311.767 238.615 311.635 238.531 311.525 238.422C311.414 238.312 311.329 238.181 311.274 238.036C311.218 237.891 311.194 237.736 311.203 237.581V175.01C311.203 167.596 303.564 165.507 298.706 165.507C293.847 165.507 284.813 168.752 284.813 177.792V237.35C284.792 237.651 284.663 237.934 284.449 238.146C284.235 238.359 283.951 238.487 283.65 238.505H258.876C258.576 238.486 258.293 238.359 258.08 238.146C257.868 237.933 257.74 237.65 257.721 237.35V237.341ZM455.227 211.882V167.596H443.884C443.728 167.605 443.573 167.582 443.428 167.526C443.282 167.471 443.151 167.385 443.041 167.275C442.931 167.165 442.845 167.033 442.79 166.888C442.735 166.743 442.711 166.587 442.72 166.432V150.431C442.72 149.96 443.191 149.498 443.422 149.267C443.884 149.036 458.469 144.867 458.469 144.867C458.469 144.867 466.339 119.844 466.57 119.382C466.655 119.149 466.816 118.953 467.028 118.825C467.24 118.698 467.489 118.646 467.733 118.679H481.164C481.318 118.672 481.473 118.696 481.617 118.752C481.761 118.808 481.892 118.894 482.001 119.004C482.11 119.114 482.194 119.245 482.249 119.39C482.304 119.535 482.328 119.689 482.319 119.844V144.867H502.234C502.534 144.886 502.817 145.013 503.029 145.226C503.242 145.439 503.369 145.722 503.388 146.022V166.414C503.37 166.715 503.242 167 503.03 167.214C502.817 167.428 502.534 167.558 502.234 167.579H482.319V209.304C482.319 213.704 484.868 216.256 490.651 216.256H502.198C502.498 216.275 502.781 216.402 502.994 216.615C503.206 216.828 503.334 217.111 503.353 217.411V235.252C503.342 235.488 503.273 235.718 503.152 235.921C503.031 236.124 502.862 236.294 502.66 236.416C495.714 238.959 491.779 240.585 483.669 240.585C463.567 240.328 455.227 228.532 455.227 211.882ZM842.839 211.882V167.596H831.487C831.331 167.605 831.176 167.582 831.031 167.526C830.885 167.471 830.754 167.385 830.644 167.275C830.534 167.165 830.448 167.033 830.393 166.888C830.338 166.743 830.314 166.587 830.323 166.432V150.431C830.408 149.971 830.657 149.557 831.025 149.267C831.486 149.036 846.072 144.867 846.072 144.867C846.072 144.867 853.942 119.844 854.173 119.382C854.255 119.147 854.416 118.949 854.628 118.821C854.841 118.693 855.091 118.643 855.336 118.679H868.794C868.948 118.672 869.102 118.696 869.247 118.752C869.391 118.808 869.522 118.894 869.631 119.004C869.74 119.114 869.824 119.245 869.879 119.39C869.934 119.535 869.957 119.689 869.948 119.844V144.867H889.845C890.146 144.886 890.428 145.013 890.641 145.226C890.854 145.439 890.981 145.722 891 146.022V166.414C890.982 166.715 890.854 167 890.642 167.214C890.429 167.428 890.146 167.558 889.845 167.579H869.931V209.304C869.931 213.704 872.48 216.256 878.262 216.256H889.81C890.11 216.275 890.393 216.402 890.605 216.615C890.818 216.828 890.946 217.111 890.965 217.411V235.252C890.954 235.488 890.885 235.718 890.764 235.921C890.643 236.124 890.474 236.294 890.272 236.416C883.326 238.959 879.391 240.585 871.281 240.585C850.939 240.328 842.839 228.532 842.839 211.882ZM519.83 237.341V145.782C519.821 145.628 519.845 145.474 519.9 145.33C519.954 145.185 520.039 145.054 520.148 144.945C520.257 144.836 520.388 144.751 520.532 144.696C520.677 144.641 520.831 144.618 520.985 144.627H543.449C543.7 144.668 543.937 144.77 544.138 144.926C544.34 145.081 544.5 145.284 544.604 145.516C544.604 145.978 547.153 154.787 547.153 154.787H547.615C554.099 146.44 563.826 142.733 574.707 142.733C587.907 142.733 594.391 148.76 598.095 158.032H598.761C605.477 146.68 617.282 142.733 628.163 142.733C647.616 142.733 653.869 155.48 653.869 172.397V237.287C653.878 237.442 653.855 237.596 653.8 237.74C653.745 237.884 653.66 238.016 653.551 238.125C653.442 238.234 653.311 238.319 653.167 238.374C653.023 238.428 652.868 238.452 652.714 238.443H627.932C627.632 238.424 627.349 238.296 627.136 238.084C626.924 237.871 626.796 237.588 626.777 237.287V175.241C626.777 167.828 619.831 165.045 614.972 165.045C609.412 165.045 600.849 168.521 600.609 176.859V237.11C600.59 237.41 600.462 237.693 600.25 237.906C600.037 238.119 599.754 238.246 599.454 238.265H574.476C574.322 238.274 574.168 238.251 574.024 238.196C573.88 238.141 573.749 238.056 573.639 237.947C573.53 237.838 573.446 237.707 573.391 237.562C573.336 237.418 573.312 237.264 573.321 237.11V175.01C573.321 167.596 565.904 164.814 560.584 164.814C555.716 164.814 547.153 168.521 547.153 177.792V237.11C547.162 237.264 547.138 237.418 547.084 237.562C547.029 237.707 546.944 237.838 546.835 237.947C546.726 238.056 546.595 238.141 546.451 238.196C546.307 238.251 546.152 238.274 545.998 238.265H521.216C521.066 238.319 520.906 238.337 520.748 238.32C520.59 238.302 520.438 238.248 520.305 238.162C520.171 238.076 520.058 237.96 519.976 237.824C519.894 237.688 519.844 237.535 519.83 237.376V237.341ZM670.107 165.507V148.618C670.078 148.348 670.155 148.078 670.32 147.863C670.485 147.648 670.727 147.504 670.995 147.462C683.964 144.911 695.769 143.018 707.112 143.018C731.193 143.018 745.094 148.814 745.094 174.77V237.572C745.102 237.726 745.077 237.881 745.021 238.025C744.965 238.17 744.879 238.3 744.77 238.409C744.66 238.518 744.528 238.603 744.384 238.658C744.239 238.713 744.085 238.736 743.93 238.728H720.347C719.654 238.728 719.459 238.265 719.192 237.839C718.926 237.412 716.643 228.567 716.643 228.567H717.789C711.073 237.839 702.04 240.621 691.141 240.621C673.544 240.621 664.049 226.949 664.049 210.727C664.049 186.397 681.876 181.535 695.076 181.535H718.002V175.312C718.002 167.667 712.21 166.041 690.466 166.041C681.201 166.041 671.475 166.734 671.013 166.734C670.785 166.624 670.586 166.462 670.432 166.261C670.278 166.061 670.172 165.827 670.124 165.579L670.107 165.507ZM718.268 197.944H703.443C695.573 197.944 690.483 200.957 690.483 209.304C690.483 218.336 696.968 220.425 703.212 220.425C709.004 220.425 718.268 216.949 718.268 205.366V197.944ZM761.1 237.341V145.782C761.091 145.627 761.115 145.472 761.171 145.327C761.226 145.182 761.311 145.051 761.422 144.942C761.532 144.832 761.664 144.748 761.809 144.693C761.954 144.639 762.109 144.616 762.264 144.627H784.471C784.74 144.598 785.011 144.675 785.226 144.84C785.44 145.006 785.584 145.248 785.625 145.516C785.625 145.978 788.175 159.649 788.175 159.649H788.637C794.659 147.374 806.935 142.965 817.585 142.502C817.74 142.493 817.895 142.517 818.04 142.572C818.185 142.628 818.316 142.713 818.425 142.824C818.535 142.934 818.619 143.066 818.673 143.211C818.728 143.357 818.75 143.512 818.74 143.667V169.214C818.721 169.515 818.593 169.798 818.381 170.01C818.168 170.223 817.885 170.351 817.585 170.37H811.367C794.233 170.37 788.441 177.09 788.441 185.668V237.11C788.422 237.41 788.295 237.693 788.082 237.906C787.869 238.119 787.587 238.246 787.286 238.265H762.495C762.342 238.325 762.177 238.348 762.014 238.33C761.851 238.313 761.694 238.257 761.557 238.166C761.421 238.075 761.308 237.953 761.228 237.809C761.149 237.666 761.105 237.505 761.1 237.341ZM349.834 191.695C349.834 161.801 361.382 143.027 394.523 143.027C427.664 143.027 439.451 162.032 439.451 191.695C439.451 221.58 427.904 240.354 394.523 240.354C361.453 240.328 349.87 221.58 349.87 191.695H349.834ZM379.014 191.695C379.014 207.909 381.332 217.642 394.292 217.642C407.491 217.642 409.81 207.678 409.81 191.695C409.81 175.472 407.491 165.739 394.292 165.739C381.598 165.739 379.049 175.437 379.049 191.695H379.014Z" fill="#053D4E"/>
<path d="M207.037 182.423C208.422 156.938 199.629 115.221 178.328 80.9269C178.302 80.8298 178.256 80.7392 178.193 80.6606C178.13 80.5819 178.052 80.517 177.963 80.4697C177.875 80.4224 177.777 80.3937 177.677 80.3854C177.577 80.3772 177.476 80.3895 177.381 80.4217C177.286 80.4539 177.198 80.5052 177.123 80.5725C177.049 80.6399 176.988 80.7217 176.947 80.8132C176.905 80.9046 176.882 81.0037 176.88 81.1042C176.877 81.2048 176.896 81.3048 176.933 81.398C178.328 86.4915 178.79 95.994 170.449 95.5318C155.864 94.5984 170.911 63.0863 138.729 41.539C138.595 41.4521 138.438 41.4089 138.278 41.4154C138.118 41.4219 137.965 41.4777 137.838 41.5752C137.711 41.6726 137.618 41.807 137.571 41.9597C137.524 42.1124 137.525 42.2759 137.575 42.4279C139.884 46.5969 141.048 59.8062 135.949 64.2153C131.783 67.6909 124.402 66.7576 117.198 54.9439C105.153 35.2455 109.79 14.3915 117.891 1.18218C118.583 0.293267 117.66 -0.204516 117.002 0.0266028C72.7756 14.6226 63.9729 66.7575 54.4774 85.7626C52.8608 89.0071 51.4751 90.625 48.9258 90.3938C40.8159 89.9316 46.6074 72.5533 49.3877 66.7575C49.8495 65.8686 48.9258 65.3708 48.2329 66.0642C25.4756 89.736 4.86785 130.288 0.959492 167.827C1.19044 166.894 0.497595 170.841 0.266646 173.845C0.266646 175.01 0.0356974 176.165 0.0356974 177.321V181.499C-0.309839 195.238 2.08032 208.908 7.06691 221.714C12.0535 234.519 19.5368 246.203 29.0808 256.086C38.6248 265.968 50.0386 273.851 62.6572 279.274C75.2758 284.698 88.8468 287.555 102.58 287.677C116.312 287.8 129.932 285.187 142.645 279.989C155.359 274.792 166.911 267.114 176.63 257.404C186.349 247.694 194.039 236.145 199.254 223.431C204.468 210.716 207.102 197.091 207.001 183.348L207.037 182.423ZM103.11 230.425C93.6206 230.34 84.3697 227.44 76.5277 222.092C68.6857 216.744 62.6051 209.189 59.0551 200.382C55.5052 191.575 54.6455 181.912 56.5848 172.616C58.5242 163.319 63.1754 154.808 69.9499 148.158C76.7245 141.508 85.3179 137.018 94.643 135.257C103.968 133.495 113.606 134.542 122.336 138.263C131.067 141.985 138.498 148.215 143.69 156.164C148.882 164.113 151.601 173.425 151.502 182.921C151.445 189.225 150.144 195.455 147.676 201.254C145.208 207.054 141.62 212.309 137.119 216.719C132.618 221.128 127.291 224.606 121.445 226.951C115.598 229.297 109.346 230.466 103.048 230.389L103.11 230.425Z" fill="#F04E23"/>
</g>
<defs>
<clipPath id="clip0_563_260">
<rect width="891" height="286" fill="white"/>
</clipPath>
</defs>
</svg>
