<svg width="26" height="33" viewBox="0 0 26 33" fill="none" xmlns="http://www.w3.org/2000/svg">
<path fill-rule="evenodd" clip-rule="evenodd" d="M13.0719 0C9.55981 0 9.12242 0.01925 7.74127 0.10175C3.0441 0.37675 0.436956 3.7015 0.221489 9.6965C0.159004 11.4593 0.143921 12.0203 0.143921 16.5C0.143921 20.9825 0.159004 21.5435 0.221489 23.3035C0.436956 29.2957 3.0441 32.626 7.74127 32.901C9.12242 32.9808 9.55981 33 13.0719 33C16.584 33 17.0236 32.9808 18.4047 32.901C23.0933 32.626 25.7112 29.3013 25.9223 23.3035C25.9848 21.5435 25.9999 20.9825 25.9999 16.5C25.9999 12.0203 25.9848 11.4593 25.9223 9.6965C25.7112 3.70975 23.1019 0.374 18.4047 0.10175C17.0236 0.01925 16.584 0 13.0719 0ZM13.072 2.97552C16.5238 2.97552 16.9332 2.99202 18.2971 3.07177C21.8027 3.27527 23.436 5.39553 23.5976 9.83403C23.6579 11.5748 23.6708 12.0945 23.6708 16.5C23.6708 20.9055 23.6579 21.428 23.5976 23.166C23.436 27.6018 21.8049 29.7275 18.2971 29.931C16.9332 30.008 16.526 30.0273 13.072 30.0273C9.62025 30.0273 9.21086 30.0108 7.84911 29.931C4.33701 29.7248 2.71023 27.5963 2.54863 23.166C2.4883 21.428 2.47322 20.9055 2.47322 16.5C2.47322 12.0945 2.4883 11.572 2.54863 9.83403C2.70808 5.39278 4.34131 3.27252 7.84911 3.06902C9.21086 2.98927 9.62025 2.97552 13.072 2.97552ZM6.43333 16.5C6.43333 11.8195 9.40677 8.02728 13.0719 8.02728C16.7369 8.02728 19.7104 11.8223 19.7104 16.5C19.7104 21.1805 16.7369 24.9728 13.0719 24.9728C9.40677 24.9728 6.43333 21.1805 6.43333 16.5ZM13.0721 21.9999C10.6912 21.9999 8.76275 19.5387 8.76275 16.4999C8.76275 13.4639 10.6912 10.9999 13.0721 10.9999C15.4508 10.9999 17.3836 13.4612 17.3836 16.4999C17.3836 19.5387 15.4508 21.9999 13.0721 21.9999ZM18.4198 7.69454C18.4198 6.60004 19.1158 5.71454 19.9712 5.71454C20.8309 5.71454 21.5247 6.60004 21.5247 7.69454C21.5247 8.78904 20.8287 9.67454 19.9712 9.67454C19.1136 9.67454 18.4198 8.78629 18.4198 7.69454Z" fill="white"/>
</svg>
