<svg width="361" height="101" viewBox="0 0 361 101" fill="none" xmlns="http://www.w3.org/2000/svg">
<path fill-rule="evenodd" clip-rule="evenodd" d="M60.8736 78.1972C53.7793 79.1428 45.5408 74.2258 44.1677 68.3633C43.0234 63.0681 41.6504 57.962 39.8196 52.856C36.158 56.8274 34.0984 60.2314 32.0387 65.1484C29.5214 71.2 24.7156 76.3061 16.7059 77.4408C13.7309 77.819 10.527 77.6299 7.55198 77.2517L0 76.3061L2.05963 70.2545C9.61162 49.0737 18.7655 26.5691 31.581 7.27946C34.3272 2.92984 40.2773 -0.663318 46.4562 1.41694C52.4062 3.30808 53.3216 8.79239 52.4062 13.3311C52.1774 14.0876 52.1774 14.6549 51.9485 15.4114C59.9582 9.73795 68.6544 4.63187 78.2661 1.0387C83.0719 -0.66332 88.5642 -0.474217 91.9969 3.11895C95.8874 7.09034 94.7431 13.142 90.1662 16.1678C88.1065 17.6808 86.0469 19.0045 83.9873 20.5175C81.4699 22.4086 85.1315 23.3542 87.8777 21.8413C91.7681 19.9501 96.1162 18.8154 99.5489 18.059C107.559 16.5461 116.484 16.9243 123.349 21.0848C123.807 19.9501 124.265 18.6263 124.722 17.4916C126.553 12.9529 128.384 8.60326 130.215 4.06453L131.817 0.282248H136.622C145.319 0.282248 154.015 0.660484 162.711 0.660484C173.467 0.471367 188.342 1.79516 190.63 12.3856C191.088 14.4658 191.317 16.1678 191.088 18.059C193.606 17.6808 196.581 17.8698 199.098 19.1937C203.446 21.463 204.819 25.4344 204.133 29.2167C203.217 32.999 206.879 32.8099 208.023 29.2167C209.625 26.1909 211.456 23.5433 213.744 21.6521C217.863 18.4372 223.813 16.3569 229.077 19.1937C229.306 19.3828 229.535 19.3828 229.764 19.5719C231.594 16.3569 233.425 13.3311 235.485 10.3053C239.375 4.44275 246.698 -0.852441 255.395 1.60604C262.489 3.68629 265.006 9.92707 264.548 15.6005C264.32 18.8154 264.091 21.8413 263.862 25.0562C267.981 19.5719 272.1 13.8985 276.22 8.22504C277.593 6.3339 279.424 4.82099 281.483 3.49719C289.722 -1.41978 299.333 -0.852431 303.453 4.44276C308.258 -0.0959728 317.183 -1.04156 322.676 3.11895C326.337 5.95567 327.024 9.92707 325.651 13.7093C322.676 21.6521 319.243 29.9732 315.353 37.7268C318.328 38.2942 321.989 39.618 325.422 41.32C327.482 39.4289 330.914 38.8615 334.118 38.8615C340.755 39.0506 352.884 45.8587 357.461 49.8301C359.749 51.7213 361.122 54.3689 360.665 57.0165C359.978 64.0137 350.138 67.2286 343.501 69.8762C337.78 72.3347 331.83 74.9823 325.88 76.8735C324.507 77.2517 322.905 77.4408 321.532 77.4408C323.134 79.3319 324.049 81.6013 324.049 84.0598C324.049 93.3264 314.895 100.702 303.91 100.702H69.341C61.5601 100.702 55.1524 95.4066 55.1524 88.9767C55.1524 85.3836 57.212 81.2231 60.8736 78.1972Z" fill="white"/>
<path fill-rule="evenodd" clip-rule="evenodd" d="M286.518 60.4203C290.866 57.0163 297.96 60.2312 296.13 63.4462C295.901 67.4176 292.697 69.6869 288.578 71.0107C285.831 71.5781 282.856 72.7127 281.026 70.6325C279.881 67.2284 283.314 63.0679 286.518 60.4203ZM212.371 72.9019C220.61 52.0993 228.619 31.4859 241.435 13.1418C247.614 3.11879 258.598 5.57727 257.683 15.6003C257.225 22.5975 256.768 29.5947 256.081 36.592C255.852 40.5634 260.2 39.996 262.489 37.3484C268.897 28.6492 275.304 20.1391 281.712 11.4398C286.289 5.19903 301.622 2.55145 297.96 13.1418C294.07 31.675 286.747 49.2626 277.135 66.2829C275.075 71.5781 266.837 73.4692 267.981 67.4176C270.956 58.151 273.931 48.8844 276.906 39.8069C278.508 34.3226 274.16 37.1593 270.041 43.5892C265.006 51.1538 261.116 58.151 254.708 66.0938C247.156 75.5495 239.604 75.1712 239.833 64.77C240.291 58.3401 240.977 51.9102 241.664 45.2912C242.35 38.294 240.291 36.9702 236.858 44.7239C226.56 70.2543 219.237 73.8474 212.371 72.9019ZM142.801 43.5892C140.742 45.2912 139.14 50.0191 137.767 57.3945C137.767 59.853 138.911 60.9877 140.97 61.1768C144.403 61.1768 148.522 61.3659 151.726 61.1768C166.83 60.7986 173.925 44.5348 159.507 43.5892C153.557 43.5892 148.751 43.5892 142.801 43.5892ZM154.473 17.4914C151.955 17.4914 149.438 24.6778 149.438 29.0274C148.98 32.6206 153.099 32.0532 156.303 32.2424C166.83 32.4315 171.407 29.5947 174.84 24.6778C177.357 19.7608 175.984 17.3023 169.119 17.3023C164.084 17.3023 159.278 17.4914 154.473 17.4914ZM136.622 5.76638C128.384 25.4342 120.374 46.615 117.17 63.8244C116.255 72.1454 119.459 73.091 125.867 73.091C132.274 73.091 138.682 72.9019 145.09 72.9019C153.557 72.3345 161.796 69.4978 168.661 62.6897C169.805 61.555 170.95 62.1224 170.721 62.8788C170.721 70.6325 178.959 78.5753 194.979 68.9305C198.411 67.4176 199.556 67.6067 199.556 69.3087C199.556 70.4434 199.098 71.5781 198.64 72.5236C207.565 73.091 216.719 57.9619 226.331 28.0818C226.789 23.5431 223.127 21.652 218.092 25.8125C211.456 30.9186 208.71 50.9646 202.073 57.7728C193.148 68.7414 184.452 62.5006 186.054 57.3945C189.715 43.5892 194.292 41.1307 197.038 28.6492C198.411 22.4084 190.402 21.2737 185.825 27.3254C182.85 31.675 180.79 36.4029 179.188 41.1307C177.128 45.6695 173.925 45.2912 173.009 42.6436C172.552 40.3743 170.721 38.4831 168.432 36.9702C178.273 31.2968 185.367 24.4887 183.536 13.1418C182.163 7.65752 174.382 5.76637 162.482 6.1446C154.244 6.1446 145.319 5.9555 136.622 5.76638ZM103.211 50.5864C101.151 50.0191 95.6586 51.7211 92.2258 53.6122C86.0469 57.5836 86.5046 59.4748 87.1912 62.1224C88.5643 64.9591 95.6586 64.2026 100.693 59.6639C105.728 55.1251 106.186 51.7211 103.211 50.5864ZM93.3701 37.3484C91.997 39.996 81.47 37.3484 82.6142 33.9444C83.0719 27.1363 108.474 17.8697 120.374 26.5689C128.613 34.3226 109.618 55.3143 109.847 70.0652C109.847 71.5781 108.703 72.3345 106.414 72.3345C104.126 72.3345 101.837 72.3345 99.7778 72.3345C97.7182 72.3345 96.1163 71.1998 94.7432 69.4978C88.7931 73.8474 71.4007 75.9277 69.341 68.174C67.7391 61.555 67.5102 56.0707 78.4949 49.0735C84.9027 45.4803 92.9124 44.3457 103.211 42.6436C107.559 41.1307 109.847 35.6464 105.499 34.1335C100.693 32.0532 96.8028 34.1335 93.3701 37.3484ZM8.69629 71.7672C16.706 49.0735 25.631 26.9472 37.5311 9.92689C40.9639 4.63169 47.6005 5.00993 45.7697 12.1963C44.8543 16.3568 43.4812 20.5173 41.6504 24.4887C40.5062 27.5145 43.2523 29.5947 48.287 25.6234C60.1871 15.9785 70.4853 10.4942 80.7834 6.1446C87.42 4.06435 89.022 9.35954 85.5892 12.0071C70.7141 21.4628 58.1275 31.8641 63.1621 51.1538C64.3064 56.6381 64.9929 62.3115 64.3064 67.7958C61.789 77.0624 51.7197 71.5781 51.0332 67.6067C49.4312 61.555 48.0582 55.3143 45.7697 49.4517C44.1677 44.7239 40.0485 43.7783 35.7004 48.6953C32.0388 52.4776 28.6061 55.8816 26.0887 63.4462C21.0541 72.3345 15.104 72.5236 8.69629 71.7672ZM291.553 52.6667C291.324 55.6925 294.528 56.8272 298.647 52.2884C306.428 41.1307 313.064 27.5145 319.014 12.5745C321.532 5.57727 310.547 4.63169 307.572 9.54866C301.851 17.8697 296.587 33.5661 291.553 52.6667Z" fill="#175FAD"/>
<path d="M303.681 95.5957L305.512 89.9223C305.741 89.1658 306.199 88.4094 306.427 87.842C306.885 87.2747 307.343 86.7073 307.8 86.14C308.258 85.5727 308.716 85.1944 309.402 85.0053C309.86 84.8162 310.547 84.6271 311.004 84.6271C311.233 84.6271 311.233 84.6271 311.462 84.6271C311.691 84.6271 311.691 84.6271 311.691 84.6271L312.377 82.3577C312.377 82.3577 312.149 82.3577 311.92 82.3577C311.691 82.3577 311.691 82.3577 311.462 82.3577C310.775 82.3577 310.089 82.5468 309.402 82.7359C308.716 82.9251 308.258 83.3033 307.572 83.8706C307.114 84.2489 306.656 84.8162 306.198 85.3835C306.427 84.8162 306.427 84.438 306.656 83.8706C306.885 83.4924 306.885 82.9251 307.114 82.5468H304.825C304.825 82.9251 304.597 83.4924 304.368 83.8706C304.139 84.438 304.139 84.8162 303.91 85.3835C303.681 85.9509 303.681 86.5182 303.452 87.0856L300.706 95.4066L303.681 95.5957ZM290.179 89.3549C290.408 88.5985 290.866 87.842 291.323 87.2747C291.781 86.7073 292.239 86.14 292.696 85.7618C293.154 85.3835 293.841 85.0053 294.298 84.8162C294.985 84.6271 295.443 84.438 296.129 84.438C296.587 84.438 297.045 84.438 297.502 84.6271C297.96 84.8162 298.189 85.0053 298.418 85.3835C298.647 85.7618 298.875 85.9509 298.875 86.3291C298.875 86.7074 298.875 87.0856 298.875 87.4638C298.875 88.0311 298.647 88.5985 298.418 89.3549C298.189 89.9223 297.731 90.6787 297.502 91.2461C297.045 91.8134 296.587 92.3808 295.9 92.9481C295.214 93.5154 294.756 93.8937 294.07 94.0828C293.383 94.2719 292.696 94.461 291.781 94.461C290.866 94.461 290.408 94.2719 289.95 93.8937C289.493 93.5154 289.493 93.1372 289.493 92.5699C289.493 92.1916 289.493 92.0025 289.721 91.6243C289.721 91.4352 289.95 91.057 289.95 90.8678L290.179 89.3549ZM291.781 76.6843L286.975 90.6787C286.975 91.057 286.746 91.2461 286.746 91.6243C286.746 92.0025 286.518 92.3808 286.518 92.5699C286.518 93.3263 286.518 94.0828 286.975 94.461C287.433 95.0284 287.891 95.2175 288.577 95.5957C289.264 95.7848 290.179 95.9739 291.095 95.9739C292.239 95.9739 293.154 95.7848 294.07 95.5957C294.985 95.4066 295.9 95.0284 296.587 94.6501C297.273 94.2719 297.96 93.7046 298.647 93.1372C299.333 92.5699 299.791 92.0025 300.248 91.2461C300.706 90.4896 300.935 89.9223 301.393 89.1658C301.622 88.4094 301.85 87.842 301.85 87.0856C301.85 86.5182 301.85 85.9509 301.85 85.3835C301.622 84.8162 301.622 84.2489 301.164 83.8706C300.935 83.4924 300.477 83.1142 299.791 82.7359C299.104 82.5468 298.418 82.3577 297.731 82.3577C297.045 82.3577 296.358 82.5468 295.671 82.7359C294.985 82.9251 294.298 83.3033 293.612 83.6815C292.925 84.0597 292.468 84.6271 291.781 85.1944L294.756 76.8734H291.781V76.6843ZM281.941 95.9739C282.398 95.9739 282.627 95.9739 283.085 95.7848C283.314 95.5957 283.771 95.4066 283.771 95.2175C284 95.0284 284 94.6501 284.229 94.2719C284.229 93.8937 284.229 93.7046 284 93.5155C283.771 93.3263 283.771 93.1372 283.543 92.9481C283.314 92.759 282.856 92.759 282.627 92.759C282.169 92.759 281.941 92.759 281.483 92.9481C281.254 93.1372 280.796 93.3263 280.796 93.5155C280.568 93.7046 280.568 94.0828 280.339 94.461C280.339 94.8392 280.339 95.0284 280.568 95.2175C280.796 95.4066 280.796 95.5957 281.025 95.7848C281.254 95.7848 281.712 95.9739 281.941 95.9739ZM258.598 95.5957L260.658 89.1658C260.887 88.4094 261.115 87.842 261.573 87.2747C262.031 86.7073 262.489 86.14 262.946 85.7618C263.404 85.3835 264.09 85.0053 264.548 84.8162C265.006 84.6271 265.692 84.438 266.15 84.438C266.837 84.438 267.294 84.6271 267.523 84.8162C267.752 85.0053 267.981 85.3835 268.21 85.5727C268.21 85.9509 268.21 86.3291 268.21 86.7073C268.21 86.8964 268.21 87.2747 267.981 87.4638C267.981 87.6529 267.752 88.0311 267.752 88.2202L265.235 95.7848H267.752L269.812 89.1658C270.04 88.4094 270.269 87.842 270.727 87.2747C271.185 86.7073 271.642 86.14 272.1 85.7618C272.558 85.3835 273.016 85.0053 273.702 84.8162C274.16 84.6271 274.846 84.438 275.304 84.438C275.991 84.438 276.448 84.438 276.677 84.6271C276.906 84.8162 277.135 85.0053 277.364 85.3835C277.592 85.7618 277.592 86.14 277.364 86.5182C277.364 86.7074 277.364 87.0856 277.135 87.2747C277.135 87.6529 276.906 87.842 276.906 88.0311L274.389 95.4066H276.906L279.423 87.842C279.423 87.6529 279.652 87.2747 279.652 87.0856C279.652 86.8965 279.881 86.5182 279.881 86.3291C279.881 86.14 279.881 85.9509 279.881 85.5727C279.881 85.0053 279.881 84.438 279.652 84.0598C279.423 83.6815 279.194 83.3033 278.966 82.9251C278.737 82.7359 278.279 82.5468 277.821 82.3577C277.364 82.1686 276.906 82.1686 276.448 82.1686C275.304 82.1686 274.16 82.3577 273.244 82.9251C272.1 83.4924 271.414 84.0597 270.498 85.0053C270.498 84.438 270.498 83.8706 270.269 83.4924C270.041 83.1142 269.583 82.7359 269.125 82.5468C268.667 82.3577 267.981 82.1686 267.294 82.1686C266.15 82.1686 265.235 82.3577 264.319 82.9251C263.404 83.3033 262.489 84.0597 261.573 85.0053L262.26 82.5468H259.971C259.742 83.1142 259.742 83.6815 259.514 84.2489C259.285 84.8162 259.056 85.5727 258.827 86.3291L255.852 95.5957H258.598ZM247.385 94.0828C246.698 94.0828 246.011 93.8937 245.554 93.5155C245.096 93.1372 244.638 92.759 244.41 92.1916C244.181 91.6243 244.181 91.057 244.181 90.3005C244.181 89.7332 244.41 89.1658 244.638 88.4094C244.867 87.842 245.096 87.2747 245.554 86.7073C246.011 86.14 246.469 85.7618 246.927 85.1944C247.385 84.8162 248.071 84.438 248.529 84.2489C249.215 84.0597 249.673 83.8706 250.36 83.8706C251.046 83.8706 251.733 84.0597 252.19 84.2489C252.648 84.438 252.877 84.8162 253.335 85.1944C253.563 85.5726 253.792 85.9509 253.792 86.3291C253.792 86.7074 253.792 87.0856 253.792 87.4638C253.792 88.0311 253.563 88.5985 253.335 89.3549C253.106 89.9223 252.877 90.4896 252.419 91.057C251.961 91.6243 251.504 92.0025 251.046 92.5699C250.588 92.9481 249.902 93.3263 249.444 93.5155C248.758 94.0828 248.071 94.0828 247.385 94.0828ZM246.927 95.9739C248.071 95.9739 248.986 95.7848 249.902 95.5957C250.817 95.2175 251.733 94.8392 252.419 94.2719C253.106 93.7046 253.792 93.1372 254.479 92.3808C255.165 91.6243 255.394 90.8678 255.852 90.1114C256.081 89.3549 256.31 88.5985 256.538 87.6529C256.538 86.8964 256.538 86.3291 256.31 85.5727C256.081 85.0053 255.852 84.438 255.394 83.8706C254.937 83.3033 254.25 82.9251 253.563 82.7359C252.877 82.3577 251.961 82.3577 250.817 82.3577C249.902 82.3577 248.758 82.5468 247.842 82.7359C246.927 83.1142 246.011 83.4924 245.325 83.8706C244.638 84.438 243.952 85.0053 243.265 85.7618C242.579 86.5182 242.121 87.2747 241.892 88.0311C241.434 88.7876 241.206 89.7332 241.206 90.4896C241.206 91.2461 241.206 92.0025 241.434 92.5699C241.663 93.1372 241.892 93.7046 242.35 94.2719C242.808 94.8392 243.494 95.2175 244.181 95.4066C245.096 95.7848 246.011 95.9739 246.927 95.9739ZM239.604 93.3263C239.375 93.5154 238.917 93.5154 238.688 93.7046C238.231 93.8937 238.002 93.8937 237.544 93.8937C237.086 93.8937 236.629 94.0828 235.942 94.0828C235.027 94.0828 234.34 93.8937 233.882 93.7046C233.425 93.5154 232.967 92.9481 232.738 92.5699C232.509 92.0025 232.509 91.4352 232.509 90.6787C232.509 90.1114 232.738 89.544 232.967 88.7876C233.196 88.2202 233.654 87.6529 234.111 87.0856C234.569 86.5182 235.027 86.14 235.713 85.5727C236.4 85.1944 236.858 84.8162 237.544 84.6271C238.231 84.438 238.917 84.2489 239.833 84.2489C240.519 84.2489 240.977 84.2489 241.434 84.438C241.892 84.438 242.121 84.6271 242.579 84.8162L243.494 83.1142C243.265 83.1142 243.036 82.9251 242.808 82.9251C242.579 82.9251 242.121 82.7359 241.663 82.7359C241.206 82.7359 240.748 82.7359 240.29 82.5468C239.146 82.5468 238.002 82.7359 237.086 82.9251C236.171 83.3033 235.256 83.6815 234.34 84.2489C233.425 84.8162 232.738 85.3835 232.052 86.14C231.365 86.8965 230.907 87.6529 230.45 88.4094C229.992 89.1658 229.763 90.1114 229.763 91.057C229.763 91.8134 229.763 92.3808 229.992 92.9481C230.221 93.5154 230.45 94.0828 230.907 94.461C231.365 94.8392 232.052 95.2175 232.738 95.5957C233.425 95.7848 234.34 95.9739 235.256 95.9739C235.942 95.9739 236.629 95.9739 237.315 95.7848C238.002 95.7848 238.459 95.5957 238.917 95.4066C239.375 95.2175 239.833 95.2175 240.061 95.0284L239.604 93.3263ZM225.186 95.9739C225.644 95.9739 225.873 95.9739 226.331 95.7848C226.559 95.5957 227.017 95.4066 227.017 95.2175C227.246 95.0284 227.246 94.6501 227.475 94.2719C227.475 93.8937 227.475 93.7046 227.246 93.5155C227.017 93.3263 227.017 93.1372 226.788 92.9481C226.559 92.5699 226.102 92.5699 225.873 92.5699C225.415 92.5699 225.186 92.5699 224.729 92.759C224.5 92.9481 224.042 93.1372 224.042 93.3263C223.813 93.5154 223.813 93.8937 223.584 94.2719C223.584 94.6501 223.584 94.8393 223.813 95.0284C224.042 95.2175 224.042 95.4066 224.271 95.5957C224.5 95.7848 224.729 95.9739 225.186 95.9739ZM202.53 95.5957L204.361 89.7332C204.59 88.7876 205.048 88.0311 205.505 87.4638C205.963 86.8964 206.421 86.3291 207.107 85.9509C207.565 85.5727 208.252 85.3835 208.709 85.3835C209.167 85.3835 209.396 85.3835 209.625 85.5727C209.853 85.7618 209.853 85.9509 210.082 86.14C210.082 86.3291 210.082 86.7073 210.082 86.8965C210.082 87.0856 210.082 87.2747 209.853 87.6529C209.853 87.842 209.625 88.2203 209.625 88.4094L207.336 95.5957H211.913L213.744 89.7332C213.973 88.7876 214.43 88.0311 214.888 87.4638C215.346 86.8964 215.803 86.3291 216.261 85.9509C216.719 85.5727 217.405 85.3835 217.863 85.3835C218.321 85.3835 218.55 85.3835 218.779 85.5727C219.007 85.7618 219.236 85.9509 219.236 86.14C219.236 86.3291 219.236 86.7073 219.236 86.8965C219.236 87.0856 219.236 87.4638 219.007 87.6529C219.007 87.842 218.779 88.2203 218.779 88.4094L216.49 95.5957H221.067L223.584 88.0311C223.584 87.842 223.813 87.4638 223.813 87.2747C223.813 87.0856 224.042 86.7074 224.042 86.5182C224.042 86.3291 224.042 85.9509 224.042 85.7618C224.042 85.0053 224.042 84.438 223.813 83.8706C223.584 83.3033 223.127 82.9251 222.669 82.7359C222.211 82.5468 221.525 82.3577 220.609 82.3577C219.923 82.3577 219.236 82.3577 218.55 82.5468C217.863 82.7359 217.177 82.9251 216.719 83.3033C216.032 83.6815 215.575 84.0597 214.888 84.6271C214.888 84.2489 214.888 84.0597 214.659 83.6815C214.43 83.3033 214.43 83.1142 213.973 82.9251C213.744 82.7359 213.286 82.5468 212.828 82.3577C212.371 82.1686 211.913 82.1686 211.227 82.1686C210.311 82.1686 209.167 82.3577 208.252 82.7359C207.336 83.1142 206.421 83.6815 205.505 84.6271L205.963 82.5468H201.844C201.615 83.1142 201.615 83.8706 201.386 84.438C201.157 85.1944 200.928 85.9509 200.7 86.7073L197.724 95.5957H202.53ZM195.207 82.5468L193.148 88.5985C192.919 89.5441 192.461 90.3005 192.003 90.8678C191.546 91.4352 191.088 92.0025 190.401 92.3808C189.944 92.759 189.257 92.9481 188.799 92.9481C188.342 92.9481 188.113 92.9481 187.884 92.759C187.655 92.5699 187.426 92.3808 187.426 92.1916C187.426 92.0025 187.426 91.6243 187.426 91.4352C187.426 91.2461 187.426 90.8678 187.655 90.6787C187.655 90.3005 187.884 90.1114 187.884 89.7332L190.172 82.7359H185.596L183.078 90.1114C183.078 90.3005 183.078 90.6787 182.849 91.057C182.849 91.4352 182.621 91.8134 182.621 92.1916C182.621 92.9481 182.621 93.7046 182.849 94.2719C183.078 94.8392 183.536 95.2175 184.222 95.4066C184.909 95.5957 185.596 95.7848 186.282 95.7848C187.197 95.7848 188.113 95.5957 189.257 95.2175C190.172 94.8393 191.088 94.2719 192.003 93.3263L191.546 95.4066H195.665C195.894 94.8392 196.123 94.0828 196.351 93.5155C196.58 92.759 196.809 92.0025 197.038 91.2461L200.013 82.3577L195.207 82.5468ZM171.636 88.9767C171.865 88.2202 172.322 87.6529 172.78 87.0856C173.238 86.5182 173.695 86.14 174.382 85.7618C174.84 85.3835 175.526 85.3835 175.984 85.3835C176.442 85.3835 176.899 85.5727 177.128 85.7618C177.357 85.9509 177.586 86.14 177.815 86.5182C178.044 86.8965 178.044 87.2747 177.815 87.6529C177.815 88.0311 177.586 88.5985 177.357 89.1658C177.128 89.7332 176.899 90.1114 176.67 90.6787C176.442 91.057 175.984 91.6243 175.526 92.0025C175.069 92.3808 174.611 92.759 174.153 92.9481C173.695 93.1372 173.238 93.3263 172.551 93.3263C172.094 93.3263 171.636 93.1372 171.407 92.9481C171.178 92.759 170.949 92.3808 170.949 91.8134C170.949 91.6243 170.949 91.2461 170.949 91.057C170.949 90.8678 171.178 90.6787 171.178 90.3005L171.636 88.9767ZM171.178 76.6843L166.601 89.9223C166.372 90.3005 166.372 90.6787 166.143 91.057C166.143 91.4352 165.915 91.8134 165.915 92.1916C165.686 93.3263 166.143 94.2719 167.059 94.8392C167.974 95.4066 169.347 95.7848 171.178 95.7848C172.551 95.7848 173.924 95.5957 175.069 95.2175C176.213 94.8393 177.357 94.461 178.272 93.7046C179.188 93.1372 179.874 92.3808 180.561 91.6243C181.247 90.8678 181.705 90.1114 181.934 89.1658C182.392 88.2203 182.621 87.4638 182.621 86.5182C182.621 85.9509 182.621 85.3835 182.392 84.8162C182.163 84.2489 181.934 83.8706 181.705 83.3033C181.247 82.9251 180.79 82.5468 180.332 82.3577C179.645 82.1686 178.959 81.9795 178.272 81.9795C177.586 81.9795 176.899 81.9795 176.442 82.1686C175.755 82.3577 175.297 82.5468 174.611 82.7359C174.153 82.9251 173.695 83.3033 173.238 83.6815L175.984 76.1169H171.178V76.6843ZM160.422 88.2202C159.965 89.3549 159.736 90.1114 159.049 90.8678C158.591 91.6243 158.134 92.0025 157.447 92.3808C156.99 92.759 156.532 92.759 155.845 92.759C155.388 92.759 155.159 92.759 154.701 92.5699C154.472 92.3808 154.243 92.1916 154.243 91.8134C154.243 91.4352 154.014 91.057 154.243 90.6787C154.243 90.1114 154.472 89.7332 154.701 89.1658C154.93 88.5985 155.159 88.2203 155.616 87.6529C156.074 87.0856 156.303 86.7074 156.761 86.3291C157.218 85.9509 157.676 85.5727 158.363 85.3835C158.82 85.1944 159.507 85.0053 160.193 85.0053C160.422 85.0053 160.651 85.0053 160.88 85.0053C161.109 85.0053 161.338 85.0053 161.566 85.0053L160.422 88.2202ZM163.397 95.5957C163.397 95.2175 163.397 94.6501 163.626 94.2719C163.626 93.7046 163.855 93.3263 163.855 92.759C163.855 92.1916 164.084 91.6243 164.313 91.2461C164.542 90.6787 164.542 90.3005 164.77 89.9223L167.059 83.1142C166.601 82.9251 166.143 82.9251 165.686 82.7359C165.228 82.5468 164.542 82.5468 163.855 82.5468C163.168 82.5468 162.711 82.5468 162.024 82.5468C160.422 82.5468 159.049 82.7359 157.905 83.1142C156.532 83.4924 155.616 83.8706 154.472 84.438C153.557 85.0053 152.641 85.7618 151.955 86.5182C151.268 87.2747 150.811 88.0311 150.353 88.9767C149.895 89.9223 149.666 90.6787 149.666 91.6243C149.666 92.5699 149.666 93.3263 150.124 94.0828C150.353 94.8392 151.039 95.2175 151.726 95.5957C152.413 95.9739 153.328 96.163 154.243 96.163C154.93 96.163 155.388 96.163 156.074 95.9739C156.761 95.7848 157.447 95.4066 157.905 95.0284C158.591 94.6501 159.049 94.0828 159.736 93.3263C159.736 93.7046 159.507 94.2719 159.507 94.6501C159.507 95.0284 159.278 95.5957 159.278 95.9739H163.397V95.5957ZM138.682 95.5957L140.055 91.4352L141.886 90.1114L144.174 95.7848H149.438L145.776 88.0311L153.099 82.5468H147.378L143.03 86.5182C142.801 86.7074 142.572 86.8964 142.343 87.2747C142.114 87.4638 141.886 87.842 141.428 88.0311L145.318 76.6843H140.741L134.334 95.5957H138.682ZM130.901 95.9739C131.359 95.9739 131.587 95.9739 132.045 95.7848C132.274 95.5957 132.732 95.4066 132.732 95.2175C132.96 95.0284 132.96 94.6501 133.189 94.2719C133.189 93.8937 133.189 93.7046 132.96 93.5155C132.732 93.3263 132.732 93.1372 132.503 92.9481C132.045 92.5699 131.816 92.5699 131.359 92.5699C130.901 92.5699 130.672 92.5699 130.214 92.759C129.985 92.9481 129.528 93.1372 129.528 93.3263C129.299 93.5154 129.299 93.8937 129.07 94.2719C129.07 94.6501 129.07 94.8393 129.299 95.0284C129.528 95.2175 129.528 95.4066 129.757 95.5957C130.214 95.7848 130.443 95.9739 130.901 95.9739ZM111.678 82.7359L111.906 95.7848H114.424L119.687 88.5985C119.916 88.2203 120.145 87.842 120.374 87.4638C120.603 87.0856 120.832 86.7074 121.06 86.3291C121.289 85.9509 121.518 85.5726 121.747 85.1944C121.747 85.7618 121.747 86.3291 121.518 86.8965C121.518 87.4638 121.518 88.0311 121.518 88.5985L121.747 95.5957H124.264L133.418 82.5468H130.672L125.866 90.1114C125.408 90.6787 125.18 91.2461 124.951 91.8134C124.722 92.3808 124.493 92.9481 124.035 93.3263C124.035 92.9481 124.035 92.3808 124.035 91.8134C124.035 91.2461 124.035 90.6787 124.035 89.9223L123.807 82.5468H121.518L116.026 90.1114C115.568 90.6787 115.11 91.4352 114.881 91.8134C114.424 92.3808 114.195 92.759 113.966 93.3263C113.966 92.9481 113.966 92.5699 114.195 92.3808C114.195 92.0025 114.195 91.6243 114.195 91.2461C114.195 90.8679 114.195 90.4896 114.195 89.9223L114.424 82.5468L111.678 82.7359ZM89.937 82.7359L90.1659 95.7848H92.6832L97.9467 88.5985C98.1756 88.2203 98.4044 87.842 98.6332 87.4638C98.8621 87.0856 99.0909 86.7074 99.3198 86.3291C99.5486 85.9509 99.7775 85.5726 100.006 85.1944C100.006 85.7618 100.006 86.3291 99.7775 86.8965C99.7775 87.4638 99.7775 88.0311 99.7775 88.5985L100.006 95.5957H102.524L111.678 82.5468H108.931L103.897 89.9223C103.439 90.4896 103.21 91.057 102.981 91.6243C102.753 92.1916 102.524 92.759 102.066 93.1372C102.066 92.759 102.066 92.1916 102.066 91.6243C102.066 91.057 102.066 90.4896 102.066 89.7332L101.837 82.3577H99.5486L94.0563 89.9223C93.5986 90.4896 93.1409 91.2461 92.9121 91.6243C92.4544 92.1916 92.2255 92.5699 91.9967 93.1372C91.9967 92.759 91.9967 92.3808 92.2255 92.1916C92.2255 91.8134 92.2255 91.4352 92.2255 91.057C92.2255 90.6787 92.2255 90.3005 92.2255 89.7332L92.4543 82.3577L89.937 82.7359ZM68.4253 82.7359L68.6541 95.7848H70.9426L76.2061 88.5985C76.435 88.2203 76.6638 87.842 76.8927 87.4638C77.1215 87.0856 77.3504 86.7074 77.5792 86.3291C77.8081 85.9509 78.0369 85.5726 78.2658 85.1944C78.2658 85.7618 78.2658 86.3291 78.0369 86.8965C78.0369 87.4638 78.0369 88.0311 78.0369 88.5985L78.2658 95.5957H80.7831L89.937 82.5468H87.1908L82.385 90.1114C81.9273 90.6787 81.6985 91.2461 81.4696 91.8134C81.2408 92.3808 81.0119 92.9481 80.5542 93.3263C80.5542 92.9481 80.5542 92.3808 80.5542 91.8134C80.5542 91.2461 80.5542 90.6787 80.5542 89.9223L80.3254 82.5468H78.0369L72.5446 90.1114C72.0869 90.6787 71.6292 91.4352 71.4003 91.8134C70.9426 92.3808 70.7138 92.759 70.4849 93.3263C70.4849 92.9481 70.4849 92.5699 70.7138 92.3808C70.7138 92.0025 70.7138 91.6243 70.7138 91.2461C70.7138 90.8679 70.7138 90.4896 70.7138 89.9223L70.9426 82.5468L68.4253 82.7359Z" fill="#175FAD"/>
<path fill-rule="evenodd" clip-rule="evenodd" d="M232.281 50.0191C233.196 48.128 233.883 46.2368 234.798 44.5348C235.484 43.0219 236.4 41.3198 237.315 39.996C238.231 38.8614 239.604 37.7267 241.435 38.1049C243.265 38.4831 243.952 39.9961 244.181 41.3199C244.41 42.8328 244.181 44.3457 244.181 45.8586L243.952 49.83C251.046 49.4517 258.14 48.6953 265.006 47.9388C266.15 46.4259 267.065 44.7239 268.21 43.0219C269.354 41.1307 270.727 39.0505 272.558 37.5376C273.016 36.9702 273.931 36.2138 274.617 35.8355C275.762 35.2682 276.906 34.89 278.05 35.4573C280.339 36.4029 279.881 38.8614 279.423 40.5634L277.821 45.8586C280.796 45.2913 283.543 44.5348 286.289 43.9674C290.637 33.9444 293.841 23.7322 296.129 13.331C296.358 12.1963 297.045 9.92691 295.672 8.98134C294.756 8.414 293.383 8.60311 292.468 8.60311C290.637 8.79222 288.806 9.54868 287.433 10.3051C286.06 11.0616 284.916 12.0072 284 13.1419C277.364 21.652 270.956 30.3512 264.548 38.8614C262.946 40.9416 259.742 42.8328 256.767 41.6981C254.479 40.9416 253.792 38.8614 253.792 37.1593C254.25 30.1621 254.937 23.1649 255.394 16.1677C255.394 13.8983 255.165 10.4943 251.962 9.54868C250.588 9.17045 249.215 9.54869 248.071 9.92692C246.011 11.0616 244.41 12.7636 243.265 14.6548C235.256 26.0016 229.306 38.294 224.042 50.5864C226.788 50.0191 229.534 50.0191 232.281 50.0191ZM147.149 28.8383C147.149 27.3254 147.607 25.6234 148.064 24.1105C148.751 21.4629 150.582 15.6003 154.701 15.6003C159.507 15.6003 164.313 15.6003 168.89 15.4112C177.357 15.4112 180.103 19.1935 176.899 25.4343C175.984 26.9472 174.611 28.271 173.238 29.5948C168.661 33.3771 162.711 34.1335 156.303 33.9444C155.616 33.9444 154.93 33.9444 154.472 33.9444C152.413 33.9444 150.353 33.7553 148.751 32.6206C147.149 31.675 146.92 30.3512 147.149 28.8383ZM216.261 49.83C216.49 48.8844 216.948 48.128 217.405 47.1824C220.152 40.7525 222.44 34.3226 224.5 27.8927C224.5 27.3254 224.5 25.8125 223.813 25.6234C223.584 25.4343 223.127 25.6234 222.898 25.6234C221.754 26.0016 220.838 26.7581 219.923 27.3254C218.321 28.6492 216.719 31.4859 216.032 33.188C214.43 36.4029 213.515 39.6178 212.371 43.0219C211.455 45.2913 210.769 47.5606 209.853 49.83C211.913 49.83 213.973 49.83 216.261 49.83ZM187.197 48.5062C187.426 48.3171 187.426 47.9388 187.655 47.7497C188.571 45.4804 189.715 43.211 190.859 40.9416C191.774 39.2396 192.461 37.3484 193.376 35.4573C194.292 33.1879 194.978 30.9186 195.436 28.4601C195.436 27.7036 195.665 26.1907 194.521 25.6234C193.834 25.2452 192.919 25.4343 192.003 25.6234C190.401 26.0016 189.257 27.1363 188.342 28.4601C185.596 32.6206 183.307 37.1593 181.934 41.6981V41.8872C180.79 44.1566 178.501 47.1824 175.069 46.4259C173.238 46.0477 171.865 44.7239 171.636 43.211C171.178 41.3199 169.805 39.8069 167.974 38.6723L165.686 37.1593L168.203 35.8355C177.815 30.3512 183.994 24.1105 182.392 13.8983C180.79 8.41401 168.89 8.41401 163.626 8.41401C155.388 8.41401 147.149 8.22489 139.139 8.03577C137.537 12.1963 135.707 16.3568 134.105 20.5173C131.13 27.8928 128.384 35.4573 126.095 43.0219C130.672 43.4001 135.478 43.9675 140.284 44.3457C140.741 43.5892 141.428 42.8328 142.114 42.2654L141.886 41.509H142.801C148.293 41.509 154.015 41.6981 159.507 41.6981H159.736C163.397 41.8872 167.288 43.211 168.89 46.2368C168.89 46.4259 169.118 46.615 169.118 46.9933C175.297 47.7497 181.247 48.128 187.197 48.5062ZM117.399 42.0763C118.085 40.5634 118.543 39.2396 119.001 37.7267C119.916 35.0791 121.06 30.9186 119.23 28.4601C119.23 28.271 119.001 28.0819 118.772 27.8927C117.857 27.3254 117.17 26.7581 116.255 26.569C111.906 24.6778 106.643 24.6778 102.066 25.4343C97.9467 26.1907 93.3698 27.5145 89.937 29.5948C88.3351 30.5403 85.1312 32.4315 84.9024 34.3226V34.5117V34.7009C84.9024 35.4573 87.1909 36.2138 87.8774 36.4029C88.564 36.592 90.6236 36.9702 91.3101 36.592L91.539 36.4029C95.6582 32.6206 100.235 30.3512 106.414 32.6206C107.787 32.9988 108.703 33.9444 109.389 35.0791C110.762 37.1593 110.076 39.8069 108.474 41.6981C111.678 41.509 114.424 41.8872 117.399 42.0763ZM59.7291 39.8069C60.1868 35.2682 61.7887 30.7295 64.9926 26.3798C69.5696 19.95 76.8927 14.8439 83.987 10.3051C84.6735 9.7378 85.3601 8.6031 84.6735 7.84665C83.987 7.09019 82.3851 7.46843 81.6985 7.84665C76.435 10.116 71.1715 12.5745 66.3657 15.4112C60.4156 18.8153 54.9233 22.5976 49.6598 26.9472C48.2867 28.0819 46.6847 29.0274 45.0828 29.4057C43.4809 29.7839 41.6501 29.5948 40.5058 28.8383C38.9039 27.7036 38.6751 25.6234 39.1328 23.9214V23.7322C40.7347 19.7609 42.3366 15.7895 43.252 11.8181C43.4809 10.8725 43.7097 9.7378 43.252 8.98134C43.252 8.79223 43.0232 8.60311 42.7943 8.41401C42.5655 8.41401 41.8789 8.414 41.6501 8.60311C40.7347 8.98134 39.8193 9.92692 39.3616 10.8725C32.9539 19.95 27.9192 29.5948 23.5711 39.4287C22.198 42.4545 21.0537 45.4804 19.6807 48.5062C30.4365 43.0219 44.1674 40.3743 59.7291 39.8069ZM305.054 37.5376C309.631 29.2166 313.522 20.5173 316.954 11.8181C317.412 10.8725 317.412 9.7378 316.497 8.98134C315.581 8.22488 314.208 8.22489 313.064 8.41401C311.691 8.60311 310.547 9.17045 309.86 10.3051C308.258 12.5745 306.885 15.2221 305.741 17.6806C304.139 20.8955 302.995 24.1105 301.85 27.5145C300.248 31.675 298.875 36.0247 297.502 40.1852C300.02 39.6178 302.537 38.6723 305.054 37.5376Z" fill="#097BBB"/>
<path fill-rule="evenodd" clip-rule="evenodd" d="M332.516 53.6123C329.083 50.5865 317.412 43.7784 312.377 43.7784C299.791 43.5893 318.556 55.3144 319.929 57.2055C324.278 60.7987 298.189 64.2027 298.647 72.3346C298.647 73.6584 299.562 73.8475 300.935 73.4693C306.199 71.7673 315.81 67.6068 319.243 66.0938C324.506 63.8245 338.924 59.0966 332.516 53.6123ZM352.197 54.3688C348.993 51.5321 338.008 45.2913 333.66 45.1022C321.989 44.9131 339.382 55.8817 340.755 57.5837C344.645 60.9878 320.616 64.0136 321.074 71.5782C321.074 72.7128 321.989 72.902 323.362 72.5237C328.168 71.0108 337.093 67.0394 340.297 65.7156C344.645 63.8245 357.918 59.4749 352.197 54.3688Z" fill="#F05223"/>
<path fill-rule="evenodd" clip-rule="evenodd" d="M310.089 45.4803C310.089 45.8586 311.004 46.9932 311.233 47.1824C312.149 48.5062 313.522 49.6408 314.666 50.5864C316.039 51.7211 317.412 52.8558 319.014 53.9905C319.7 54.5578 320.845 55.3143 321.531 56.2598C321.989 56.6381 322.447 57.3945 322.447 57.9619C322.447 57.9619 322.447 57.9619 322.447 58.151C323.133 57.9619 323.591 57.9619 324.277 57.7728C327.024 57.2054 329.77 56.8272 332.516 56.4489C332.516 55.6925 332.058 55.1252 331.372 54.7469C328.397 52.0993 316.725 45.2912 312.606 45.2912C312.148 45.1021 310.547 45.1021 310.089 45.4803Z" fill="#F26B21"/>
<path fill-rule="evenodd" clip-rule="evenodd" d="M331.372 46.8042C331.372 47.9389 334.805 50.7756 335.72 51.532C337.093 52.6667 338.238 53.6123 339.611 54.5579C339.839 54.747 340.297 55.1252 340.984 55.5035C344.416 55.3143 347.849 55.3143 350.824 55.3143C347.849 52.8559 337.551 46.8042 333.661 46.8042C333.203 46.6151 331.83 46.6151 331.372 46.8042Z" fill="#F26B21"/>
</svg>
