<svg width="330" height="116" viewBox="0 0 330 116" fill="none" xmlns="http://www.w3.org/2000/svg">
<path d="M25.4075 113.271C12.4601 113.271 1.92334 102.942 1.92334 90.2532V24.9018C1.92334 12.2112 12.4601 1.87973 25.4075 1.87973H304.393C317.351 1.87973 327.892 12.2112 327.892 24.9018V113.271H25.4075Z" fill="#00985E"/>
<path d="M304.393 -2.34075e-05H25.4068C11.3987 -2.34075e-05 0 11.1703 0 24.9017V90.2531C0 103.973 11.3987 115.143 25.4068 115.143H325.966H329.802V111.397V24.9017C329.802 11.1703 318.401 -2.34075e-05 304.393 -2.34075e-05ZM304.393 3.76493C316.303 3.76493 325.966 13.216 325.966 24.9017V111.397H25.4068C13.4967 111.397 3.83368 101.926 3.83368 90.2531V24.9017C3.83368 13.216 13.4967 3.76493 25.4068 3.76493H304.393Z" fill="white"/>
<path fill-rule="evenodd" clip-rule="evenodd" d="M265.357 40.7515H276.829L294.069 63.2267H282.597L291.184 74.4629H276.829L268.243 63.2267H273.944L265.357 51.9948H273.944L265.357 40.7515Z" fill="white"/>
<path fill-rule="evenodd" clip-rule="evenodd" d="M265.358 40.7515H253.889L236.637 63.2267H248.121L239.531 74.4629H253.889L262.466 63.2267H256.697L265.358 51.9948H256.774L265.358 40.7515Z" fill="white"/>
<path fill-rule="evenodd" clip-rule="evenodd" d="M48.0542 43.0385H35.811V62.1482C35.811 71.3931 42.8312 74.9849 51.7243 74.9849C61.3888 74.9849 67.7909 71.6193 67.7909 61.4582V43.0385H55.7756V61.6873C55.7756 64.7436 55.0802 66.8823 51.8821 66.8823C48.9119 66.8823 48.0542 64.672 48.0542 61.6873V43.0385Z" fill="white"/>
<path fill-rule="evenodd" clip-rule="evenodd" d="M70.8325 74.4514H82.373V60.9205C82.373 59.6221 82.373 57.794 84.4739 57.794C86.5032 57.794 86.5032 59.6221 86.5032 60.9205V74.4514H98.0452V58.169C98.0452 53.5924 95.785 50.4545 89.6181 50.4545C86.3542 50.4545 83.2321 51.7543 81.8295 55.0325H81.7535V50.9927H70.8325V74.4514Z" fill="white"/>
<path fill-rule="evenodd" clip-rule="evenodd" d="M113.574 40.7517H102.032V48.5422H113.574V40.7517ZM102.032 74.4517H113.574V50.993H102.032V74.4517Z" fill="white"/>
<path fill-rule="evenodd" clip-rule="evenodd" d="M117.395 74.4514H128.939V60.9205C128.939 59.6221 128.939 57.794 131.049 57.794C132.995 57.794 132.995 59.6221 132.995 60.9205V74.4514H144.613V60.9205C144.613 59.6221 144.613 57.794 146.562 57.794C148.66 57.794 148.66 59.6221 148.66 60.9205V74.4514H160.217V60.3937C160.217 55.8027 160.217 50.4545 151.794 50.4545C148.901 50.4545 144.923 51.7543 144.144 54.5043H144.071C143.126 51.6713 139.774 50.4545 136.583 50.4545C132.913 50.4545 129.793 51.7543 128.392 55.0325H128.311V50.9927H117.395V74.4514Z" fill="white"/>
<path fill-rule="evenodd" clip-rule="evenodd" d="M189.854 65.4332V64.0574C189.854 56.1095 186.574 50.4549 177.291 50.4549C167.62 50.4549 162.475 54.4274 162.475 62.2966C162.475 70.3992 167.62 74.9858 177.291 74.9858C181.345 74.9858 185.018 74.5235 188.058 73.6101V67.569C186.255 68.4895 183.37 69.0278 180.251 69.0278C176.826 69.0278 174.097 68.3363 173.854 65.4332H189.854ZM173.854 60.4671C173.702 58.6319 174.249 55.8805 176.982 55.8805C179.557 55.8805 179.862 58.7035 179.862 60.4671H173.854Z" fill="white"/>
<path fill-rule="evenodd" clip-rule="evenodd" d="M210.087 62.6077C210.087 64.818 209.695 67.4134 207.287 67.4134C204.71 67.4134 204.319 64.818 204.319 62.3744C204.319 59.9308 204.71 57.4828 207.13 57.4828C209.695 57.4828 210.087 59.9308 210.087 62.6077ZM221.317 74.4509V40.7509H209.778V54.0485H209.695C207.905 51.5204 205.562 50.4554 202.447 50.4554C195.273 50.4554 192.311 56.0284 192.311 62.3744C192.311 69.1041 195.114 74.9849 202.84 74.9849C206.58 74.9849 208.921 73.6907 210.481 70.1677H210.558V74.4509H221.317Z" fill="white"/>
<path fill-rule="evenodd" clip-rule="evenodd" d="M230.9 35.1172H228.983V80.0806H230.9V35.1172Z" fill="white"/>
</svg>
